<svg xmlns="http://www.w3.org/2000/svg" width="135.407" height="135.407"><defs><filter id="prefix__prefix__a" x="0" y="0" width="135.407" height="135.407" filterUnits="userSpaceOnUse"><feOffset dy="3"/><feGaussianBlur stdDeviation="3" result="b"/><feFlood flood-opacity=".161"/><feComposite operator="in" in2="b"/><feComposite in="SourceGraphic"/></filter><style>.prefix__prefix__b{fill:#fff}</style></defs><g filter="url(#prefix__prefix__a)"><circle cx="58.704" cy="58.704" r="58.704" transform="translate(9 6)" fill="#00a1ed"/></g><path class="prefix__prefix__b" d="M62.696 30.031l-24.44 20.362a2.9 2.9 0 01-1.858.673h-7.634a2.892 2.892 0 00-2.892 2.892V71.33a2.892 2.892 0 002.893 2.892h7.634a2.9 2.9 0 011.858.673l24.44 20.344a5.794 5.794 0 009.5-4.422V34.478a5.794 5.794 0 00-9.5-4.45zM81.6 31.835a2.9 2.9 0 00-3.6 2.821 2.832 2.832 0 002.07 2.769 26.015 26.015 0 010 50.42A2.83 2.83 0 0078 90.613a2.9 2.9 0 003.6 2.839 31.844 31.844 0 000-61.618z"/><path class="prefix__prefix__b" d="M79.601 75.763a2.839 2.839 0 00-1.619 2.6 2.927 2.927 0 004.14 2.654 20.248 20.248 0 000-36.78 2.928 2.928 0 00-4.14 2.654 2.838 2.838 0 001.619 2.6 14.366 14.366 0 010 26.236z"/></svg>