<svg xmlns="http://www.w3.org/2000/svg" xmlns:xlink="http://www.w3.org/1999/xlink" width="123.663" height="123.663" viewBox="0 0 123.663 123.663"><defs><style>.a{fill:#00a1ed;}.b{fill:#fff;}.c{stroke:#0b0b0b;stroke-width:2px;}.d,.e{stroke:none;}.e{fill:#0b0b0b;}.f{filter:url(#a);}</style><filter id="a" x="0" y="0" width="123.663" height="123.663" filterUnits="userSpaceOnUse"><feOffset dy="3" input="SourceAlpha"/><feGaussianBlur stdDeviation="3" result="b"/><feFlood flood-opacity="0.161"/><feComposite operator="in" in2="b"/><feComposite in="SourceGraphic"/></filter></defs><g transform="translate(-329.952 49.026)"><circle class="a" cx="58.5" cy="58.5" r="58.5" transform="translate(333 -49)"/><g transform="translate(338.952 -43.026)"><g transform="translate(0 0)"><g transform="translate(0 0)"><g class="f" transform="matrix(1, 0, 0, 1, -9, -6)"><g class="b" transform="translate(9 6)"><path class="d" d="M 52.83126831054688 103.1625442504883 C 46.03548431396484 103.1625442504883 39.44431304931641 101.832145690918 33.24083709716797 99.20828247070313 C 27.24771499633789 96.67340850830078 21.86483764648438 93.04399108886719 17.24168395996094 88.42085266113281 C 12.61854553222656 83.79769897460938 8.989130020141602 78.41481018066406 6.45425271987915 72.42169952392578 C 3.830406665802002 66.21822357177734 2.500006675720215 59.62705230712891 2.500006675720215 52.83126831054688 C 2.500006675720215 46.03548431396484 3.830406665802002 39.44431304931641 6.45425271987915 33.24083709716797 C 8.989130020141602 27.24771499633789 12.61854553222656 21.86483764648438 17.24168395996094 17.24168395996094 C 21.86483764648438 12.61854553222656 27.24771499633789 8.989130020141602 33.24083709716797 6.45425271987915 C 39.44431304931641 3.830406665802002 46.03548431396484 2.500006675720215 52.83126831054688 2.500006675720215 C 59.62705230712891 2.500006675720215 66.21822357177734 3.830406665802002 72.42169952392578 6.45425271987915 C 78.41481018066406 8.989130020141602 83.79769897460938 12.61854553222656 88.42085266113281 17.24168395996094 C 93.04399108886719 21.86483764648438 96.67340850830078 27.24771499633789 99.20828247070313 33.24083709716797 C 101.832145690918 39.44431304931641 103.1625442504883 46.03548431396484 103.1625442504883 52.83126831054688 C 103.1625442504883 59.62703704833984 101.832145690918 66.21822357177734 99.20828247070313 72.42169952392578 C 96.67340850830078 78.41481018066406 93.04399108886719 83.79769897460938 88.42085266113281 88.42085266113281 C 83.79769897460938 93.04399108886719 78.41481018066406 96.67340850830078 72.42169952392578 99.20828247070313 C 66.21822357177734 101.832145690918 59.62703704833984 103.1625442504883 52.83126831054688 103.1625442504883 Z"/><path class="e" d="M 52.83126831054688 4.999992370605469 C 46.37188720703125 4.999992370605469 40.10837554931641 6.263961791992188 34.21470642089844 8.756759643554688 C 28.51959228515625 11.16559600830078 23.40379333496094 14.61508941650391 19.00945281982422 19.00945281982422 C 14.61508941650391 23.40379333496094 11.16559600830078 28.51959228515625 8.756759643554688 34.21470642089844 C 6.263961791992188 40.10837554931641 4.999992370605469 46.37188720703125 4.999992370605469 52.83126831054688 C 4.999992370605469 59.2906494140625 6.263961791992188 65.55416107177734 8.756759643554688 71.44781494140625 C 11.16559600830078 77.1429443359375 14.61508941650391 82.25872039794922 19.00945281982422 86.65308380126953 C 23.40381622314453 91.04743194580078 28.51959228515625 94.49694061279297 34.21470642089844 96.90577697753906 C 40.10837554931641 99.39857482910156 46.37188720703125 100.6625442504883 52.83126831054688 100.6625442504883 C 59.2906494140625 100.6625442504883 65.55416107177734 99.39857482910156 71.44781494140625 96.90577697753906 C 77.1429443359375 94.49694061279297 82.25872039794922 91.04743194580078 86.65308380126953 86.65308380126953 C 91.04743194580078 82.25872039794922 94.49694061279297 77.1429443359375 96.90577697753906 71.44781494140625 C 99.39857482910156 65.55416107177734 100.6625442504883 59.2906494140625 100.6625442504883 52.83126831054688 C 100.6625442504883 46.37188720703125 99.39857482910156 40.10837554931641 96.90577697753906 34.21470642089844 C 94.49694061279297 28.51959228515625 91.04743194580078 23.40381622314453 86.65308380126953 19.00945281982422 C 82.25872039794922 14.61508941650391 77.1429443359375 11.16559600830078 71.44781494140625 8.756759643554688 C 65.55416107177734 6.263961791992188 59.2906494140625 4.999992370605469 52.83126831054688 4.999992370605469 M 52.83126831054688 -7.62939453125e-06 C 82.0091552734375 -7.62939453125e-06 105.6625442504883 23.65335845947266 105.6625442504883 52.83126831054688 C 105.6625442504883 82.0091552734375 82.0091552734375 105.6625442504883 52.83126831054688 105.6625442504883 C 23.65335845947266 105.6625442504883 -7.62939453125e-06 82.0091552734375 -7.62939453125e-06 52.83126831054688 C -7.62939453125e-06 23.65335845947266 23.65335845947266 -7.62939453125e-06 52.83126831054688 -7.62939453125e-06 Z"/></g></g></g></g><g transform="translate(27.689 12.275)"><g transform="translate(0 0)"><path class="c" d="M17.72,76.482a1.311,1.311,0,0,1-1.31-1.311V67.54c0-4.144,2.668-5.238,4.079-5.238h5.062a5.993,5.993,0,0,0,4.748-1.82c2.236-2.5,1.787-6.8,1.782-6.845a1.311,1.311,0,0,1,.3-.991l2.813-3.34-2.3-1.322a1.31,1.31,0,0,1-.272-2.068l2.2-2.185-2.242-3.1a2.262,2.262,0,0,1-.425-2,2.516,2.516,0,0,1,1.432-1.538l5.7-2.35a1.048,1.048,0,0,0,.638-.515,1.434,1.434,0,0,0-.135-.949l-6.1-11.09c-3.907-7.1-3.952-11.108-3.952-11.275V7.156a1.31,1.31,0,0,1,2.62,0v3.758c0,.026.095,3.593,3.627,10.012L42.1,32.03a4.047,4.047,0,0,1,.3,3.061,3.511,3.511,0,0,1-2.113,2.073L34.918,39.38l2.69,3.725a1.31,1.31,0,0,1-.14,1.7l-1.776,1.763,1.034.592a2.577,2.577,0,0,1,1.232,1.689,2.318,2.318,0,0,1-.588,1.945l-2.645,3.138c.071,1.5,0,5.526-2.465,8.29a8.561,8.561,0,0,1-6.711,2.7H20.486c-.319.018-1.46.261-1.46,2.62v7.631A1.3,1.3,0,0,1,17.72,76.482Z" transform="translate(-16.41 -5.846)"/></g><g transform="translate(4.61 12.843)"><path class="c" d="M23.989,24.948a2.56,2.56,0,1,0-2.56-2.561,2.561,2.561,0,0,0,2.56,2.561" transform="translate(-21.429 -19.828)"/></g><g transform="translate(31.583 32.64)"><path class="c" d="M75.323,89.854a1.308,1.308,0,0,1-1.212-1.806L78.3,77.824V66.706a2.5,2.5,0,0,0-2.023-2.514c-.338,0-2.025.08-2.025,1.645v3.042A1.28,1.28,0,0,1,72.9,70.188h-.045a1.31,1.31,0,0,1-1.311-1.31V64.527a2.024,2.024,0,1,0-4.046,0v4.351a1.339,1.339,0,0,1-2.678,0V63.22a2.055,2.055,0,0,0-2.024-2.08c-2.385,0-2.183,2.4-2.238,2.55v5.282a1.31,1.31,0,1,1-2.621,0V46.048a2.27,2.27,0,0,0-4.518,0V77.813l4.476,10.106A1.31,1.31,0,1,1,55.5,88.98l-4.59-10.359a1.308,1.308,0,0,1-.112-.531V46.048a4.884,4.884,0,0,1,9.759,0V59.09a4.7,4.7,0,0,1,2.238-.569,4.638,4.638,0,0,1,3.954,2.238A4.605,4.605,0,0,1,73.6,62.287a5.1,5.1,0,0,1,2.679-.714c2.735,0,4.642,2.7,4.642,5.134V78.084a1.315,1.315,0,0,1-.1.5L76.535,89.042A1.312,1.312,0,0,1,75.323,89.854Z" transform="translate(-50.794 -41.381)"/></g></g></g></g></svg>