<svg xmlns="http://www.w3.org/2000/svg" xmlns:xlink="http://www.w3.org/1999/xlink" width="134.395" height="134.395" viewBox="0 0 134.395 134.395"><defs><style>.a{fill:#1478a4;}.b{fill:#fff;}.c{filter:url(#a);}</style><filter id="a" x="0" y="0" width="134.395" height="134.395" filterUnits="userSpaceOnUse"><feOffset dy="3" input="SourceAlpha"/><feGaussianBlur stdDeviation="3" result="b"/><feFlood flood-opacity="0.161"/><feComposite operator="in" in2="b"/><feComposite in="SourceGraphic"/></filter></defs><g transform="translate(9 6)"><g transform="translate(0 0)"><g class="c" transform="matrix(1, 0, 0, 1, -9, -6)"><circle class="a" cx="58.197" cy="58.197" r="58.197" transform="translate(9 6)"/></g></g><path class="b" d="M591.864,32.3l-9.936,9.314a39.254,39.254,0,0,0-12.6-2.076c-22.475,0-35.677,19.452-35.677,19.452a61.4,61.4,0,0,0,15.281,15.256l-8.644,8.638,4.2,4.2L596.065,36.5ZM574,49.455c-9.763-4.315-19.837,5.665-15.634,15.459l-5.124,5.069a53.948,53.948,0,0,1-12.056-10.869c4.433-4.893,14.3-13.641,28.144-13.641a32.944,32.944,0,0,1,7.749.936ZM565.438,71.52l15.115-14.826A11.848,11.848,0,0,1,565.438,71.52Zm39.478-12.533s-12.624,22.12-35.587,22.12a32.379,32.379,0,0,1-11.435-2.188l4.793-4.7a25.331,25.331,0,0,0,6.642.951c14.225,0,24.064-10.472,28.221-15.928A45.451,45.451,0,0,0,586.9,50.474l4.421-4.335A49.333,49.333,0,0,1,604.916,58.987Z" transform="translate(-510.993 -1.397)"/></g></svg>