<svg xmlns="http://www.w3.org/2000/svg" width="135.407" height="135.407"><g transform="translate(9 6)"><circle cx="56.281" cy="56.281" fill="#fff" r="56.281"/><path d="M112.745 57.117A56.281 56.281 0 0056.465.836 56.281 56.281 0 00.184 57.117a56.3 56.3 0 0039.7 53.8c.654-13.453 1.309-27.243 1.619-34.667 0-4.287-7.249-7.232-7.249-12.039V20.943a4.948 4.948 0 014.667-4.431c2.619 0 4.741 2.4 4.741 5.358v21.615h1.183v-26.2c0-2.96 2.123-5.359 4.741-5.359s4.74 2.4 4.74 5.359v26.2h1.223V12.342c0-3.111 2.122-5.633 4.74-5.633s4.74 2.522 4.74 5.633v31.143h1.235V17.873c0-3.111 2.122-5.633 4.74-5.633 2.422 0 4.42 2.162 4.7 4.95v35.821l7.007-7.008c2.451-2.451 6.176-2.7 8.319-.555a4.726 4.726 0 01-1.172 7.616c-5.087 2.45-3.2 4.888-13.02 15.77l-8.554 7.412 1.839 35.479a56.3 56.3 0 0042.622-54.608z" fill="#f3c719"/><circle cx="56.281" cy="56.281" fill="none" r="56.281"/></g></svg>