<svg xmlns="http://www.w3.org/2000/svg" width="134.395" height="134.395"><defs><filter id="prefix__a" x="0" y="0" width="134.395" height="134.395" filterUnits="userSpaceOnUse"><feOffset dy="3"/><feGaussianBlur stdDeviation="3" result="b"/><feFlood flood-opacity=".161"/><feComposite operator="in" in2="b"/><feComposite in="SourceGraphic"/></filter></defs><g filter="url(#prefix__a)"><circle cx="58.197" cy="58.197" r="58.197" transform="translate(9 6)" fill="#1478a4"/></g><path d="M89.871 36.903l-9.936 9.314a39.254 39.254 0 00-12.6-2.076c-22.475 0-35.677 19.452-35.677 19.452a61.4 61.4 0 0015.281 15.256l-8.644 8.638 4.2 4.2 51.577-50.584zM72.007 54.058c-9.763-4.315-19.837 5.665-15.634 15.459l-5.124 5.069a53.948 53.948 0 01-12.056-10.869c4.433-4.893 14.3-13.641 28.144-13.641a32.944 32.944 0 017.749.936zm-8.562 22.065L78.56 61.297a11.848 11.848 0 01-15.115 14.826zm39.478-12.533S90.299 85.71 67.336 85.71a32.379 32.379 0 01-11.435-2.188l4.793-4.7a25.331 25.331 0 006.642.951c14.225 0 24.064-10.472 28.221-15.928a45.451 45.451 0 00-10.65-8.768l4.421-4.335a49.333 49.333 0 0113.595 12.848z" fill="#fff"/></svg>