<svg xmlns="http://www.w3.org/2000/svg" width="134.395" height="134.395"><defs><filter id="prefix__a" x="0" y="0" width="134.395" height="134.395" filterUnits="userSpaceOnUse"><feOffset dy="3"/><feGaussianBlur stdDeviation="3" result="b"/><feFlood flood-opacity=".161"/><feComposite operator="in" in2="b"/><feComposite in="SourceGraphic"/></filter></defs><g filter="url(#prefix__a)"><circle cx="58.197" cy="58.197" r="58.197" transform="translate(9 6)" fill="#1478a4"/></g><path fill="#fff" d="M67.28 50.372c13.948 0 23.67 8.841 27.9 13.61-4.113 5.4-13.837 15.746-27.9 15.746-12.976 0-23.28-10.38-27.824-15.874C43.83 59.02 53.589 50.372 67.28 50.372zm0-5.872C45.052 44.5 32 63.731 32 63.731S46.195 85.6 67.28 85.6c22.702 0 35.185-21.868 35.185-21.868S89.859 44.5 67.28 44.5zm-.043 8.807A11.743 11.743 0 1078.98 65.051a11.745 11.745 0 00-11.752-11.744z"/></svg>