<svg xmlns="http://www.w3.org/2000/svg" width="54" height="51" viewBox="0 0 54 51">
  <g id="icon-action-cta" transform="translate(-381.839 -217)">
    <g id="Rectangle_1502" data-name="Rectangle 1502" transform="translate(381.839 217)" fill="#fff" stroke="#707070" stroke-linejoin="round" stroke-width="3">
      <rect width="54" height="51" rx="4" stroke="none"/>
      <rect x="1.5" y="1.5" width="51" height="48" rx="2.5" fill="none"/>
    </g>
    <g id="call-to-action" transform="translate(383.069 219.282)">
      <g id="Group_4168" data-name="Group 4168" transform="translate(6.407 4.356)">
        <path id="Path_1573" data-name="Path 1573" d="M20.5,86.92v8.97a1.858,1.858,0,0,0,3.717,0V86.92Z" transform="translate(-18.785 -74.129)" fill="#3193f3"/>
        <path id="Path_1574" data-name="Path 1574" d="M17.808,53.261H14.069a4.308,4.308,0,1,1,0-8.617h3.739Z" transform="translate(-9.761 -38.685)" fill="#f9d335"/>
        <path id="Path_1575" data-name="Path 1575" d="M76.925,8.565V27.276a.844.844,0,0,1-1.349.677c-4.875-3.7-7.546-5.724-13.727-5.724H60.174V13.612h1.674c6.182,0,8.852-2.029,13.727-5.724a.844.844,0,0,1,1.35.677Z" transform="translate(-51.721 -7.717)" fill="#5fcdff"/>
        <path id="Path_1576" data-name="Path 1576" d="M16.568,53.259h-2.5a4.309,4.309,0,0,1,0-8.617h2.5a4.309,4.309,0,0,0,0,8.617Z" transform="translate(-9.764 -38.684)" fill="#f9e27d"/>
        <path id="Path_1577" data-name="Path 1577" d="M151.968,8.565V27.277a.843.843,0,0,1-1.349.675q-.594-.449-1.146-.865V8.754q.554-.414,1.146-.865a.843.843,0,0,1,1.349.675Z" transform="translate(-126.523 -7.718)" fill="#30b6ff"/>
        <circle id="Ellipse_648" data-name="Ellipse 648" cx="5.135" cy="5.135" r="5.135" transform="translate(20.676 13.072)" fill="#ff4a73"/>
        <g id="Group_4167" data-name="Group 4167" transform="translate(20.899 16.934)">
          <g id="Group_4166" data-name="Group 4166" transform="translate(0 0)">
            <path id="Path_1578" data-name="Path 1578" d="M150.776,121.2v3.219a6.319,6.319,0,0,1-1.752,4.374.809.809,0,0,0-.225.563V132.1a1.475,1.475,0,0,1-1.475,1.475h-6.2a1.475,1.475,0,0,1-1.475-1.475v-3.2a.829.829,0,0,0-.213-.555,24.075,24.075,0,0,0-4.417-3.888l-.126-.084a.737.737,0,0,1-.2-1.023l.179-.268a2.037,2.037,0,0,1,2.823-.56l.4.268v-9.447a1.555,1.555,0,0,1,3.11,0v7.122h8.832A.738.738,0,0,1,150.776,121.2Z" transform="translate(-134.569 -111.783)" fill="#ffcaa6"/>
            <path id="Path_1579" data-name="Path 1579" d="M185.718,166.869v3.219a6.319,6.319,0,0,1-1.752,4.374.809.809,0,0,0-.225.563v2.744a1.475,1.475,0,0,1-1.475,1.475h-3.43v-5.331l-1.712-2.243a4.756,4.756,0,0,1-.976-2.886v-2.654h8.832A.737.737,0,0,1,185.718,166.869Z" transform="translate(-169.511 -157.456)" fill="#ffbb98"/>
            <path id="Path_1580" data-name="Path 1580" d="M203.946,166.131h-2.515a.738.738,0,0,1,.738.738v3.219a6.319,6.319,0,0,1-1.752,4.374.809.809,0,0,0-.225.563v2.744a1.475,1.475,0,0,1-1.475,1.475h2.515a1.475,1.475,0,0,0,1.475-1.475v-2.744a.809.809,0,0,1,.225-.563,6.319,6.319,0,0,0,1.752-4.374v-3.219A.738.738,0,0,0,203.946,166.131Z" transform="translate(-188.477 -157.455)" fill="#ffaa80"/>
          </g>
        </g>
      </g>
      <g id="Group_4169" data-name="Group 4169" transform="translate(5.77 3.718)">
        <path id="Path_1581" data-name="Path 1581" d="M42.74,29.211H34.333V27.974a5.79,5.79,0,0,0,3.728-5.406,5.872,5.872,0,0,0-5.536-5.807l0-11.543a1.523,1.523,0,0,0-2.435-1.2l-.018.014c-8.247,6.14-9.059,5.626-19.227,5.623h0a5.089,5.089,0,0,0-3.589,1.46,4.926,4.926,0,0,0,0,7.053c.088.086.179.168.272.247v7.73a2.479,2.479,0,0,0,.75,1.78,2.572,2.572,0,0,0,4.374-1.779V19.632H16.4A16.059,16.059,0,0,1,26.214,22.5c0,.022,0,.043,0,.065a5.81,5.81,0,0,0,3.62,5.365v3.163a2.776,2.776,0,0,0-3.2,1.042l-.184.271a1.374,1.374,0,0,0,.39,1.924,22.975,22.975,0,0,1,4.538,3.9.189.189,0,0,1,.05.128v3.23A2.153,2.153,0,0,0,33.6,43.718h6.358a2.153,2.153,0,0,0,2.169-2.131V38.82a.174.174,0,0,1,.05-.124,6.942,6.942,0,0,0,1.978-4.853V30.6a1.4,1.4,0,0,0-1.412-1.387Zm-31.4-3.063a1.256,1.256,0,0,1-2.137.869,1.211,1.211,0,0,1-.366-.87V19.227a5.814,5.814,0,0,0,2.5.4Zm2.686-7.8H10.845a3.775,3.775,0,0,1-2.662-1.084,3.654,3.654,0,0,1,0-5.232,3.774,3.774,0,0,1,2.662-1.083h3.181Zm1.311,0v-7.4c7.844,0,9.679-1.668,15.544-5.9a.21.21,0,0,1,.334.169l0,11.6a5.916,5.916,0,0,0-3.266,1.633A5.76,5.76,0,0,0,26.4,21.089a18.884,18.884,0,0,0-11.068-2.743Zm12.185,4.221a4.463,4.463,0,0,1,1.352-3.205,4.623,4.623,0,0,1,3.26-1.326h0a4.58,4.58,0,0,1,4.614,4.533,4.5,4.5,0,0,1-2.418,3.985V22.676a2.233,2.233,0,0,0-2.25-2.21,2.257,2.257,0,0,0-1.59.647,2.17,2.17,0,0,0-.661,1.564v3.817A4.512,4.512,0,0,1,27.522,22.566ZM42.841,33.844a5.669,5.669,0,0,1-1.613,3.962,1.438,1.438,0,0,0-.415,1.015v2.767a.852.852,0,0,1-.859.843H33.6a.852.852,0,0,1-.858-.843v-3.23a1.463,1.463,0,0,0-.388-.991A25.02,25.02,0,0,0,27.7,33.343l-.128-.084a.1.1,0,0,1-.028-.138l.184-.27a1.452,1.452,0,0,1,1.988-.388c.235.112.6.56,1.084.3a.642.642,0,0,0,.347-.568V22.676a.9.9,0,0,1,.276-.652.944.944,0,0,1,.665-.271.932.932,0,0,1,.939.923v7.179a.65.65,0,0,0,.655.644H42.74a.1.1,0,0,1,.1.1v3.245Z" transform="translate(-5.77 -3.718)" fill="#5f266d"/>
        <path id="Path_1582" data-name="Path 1582" d="M125.462,40.15a.639.639,0,0,0-.9-.056,8.393,8.393,0,0,1-1.616,1.1.638.638,0,1,0,.6,1.128,9.658,9.658,0,0,0,1.862-1.267A.638.638,0,0,0,125.462,40.15Z" transform="translate(-103.449 -34.152)" fill="#5f266d"/>
        <path id="Path_1583" data-name="Path 1583" d="M91.165,53.155a17.8,17.8,0,0,1-3.3.738A.639.639,0,1,0,88,55.163a18.757,18.757,0,0,0,3.563-.795.638.638,0,1,0-.4-1.214Z" transform="translate(-73.912 -45.169)" fill="#5f266d"/>
        <path id="Path_1584" data-name="Path 1584" d="M178.934,50.854a.639.639,0,0,0,.639-.639V47.242a.639.639,0,1,0-1.277,0v2.974A.639.639,0,0,0,178.934,50.854Z" transform="translate(-150.042 -39.695)" fill="#5f266d"/>
        <path id="Path_1585" data-name="Path 1585" d="M227.214,111.883h-2.974a.639.639,0,0,0,0,1.277h2.974a.639.639,0,0,0,0-1.277Z" transform="translate(-187.853 -94.471)" fill="#5f266d"/>
        <path id="Path_1586" data-name="Path 1586" d="M211.249,69.381a.637.637,0,0,0,.452-.187l2.1-2.1a.639.639,0,0,0-.9-.9l-2.1,2.1a.639.639,0,0,0,.451,1.09Z" transform="translate(-176.935 -55.97)" fill="#5f266d"/>
      </g>
    </g>
  </g>
</svg>
