<svg xmlns="http://www.w3.org/2000/svg" width="125" height="125" viewBox="0 0 125 125">
  <defs>
    <style>
      .cls-1 {
        fill: #6dcff6;
        stroke: #000;
        stroke-width: 2px;
      }

      .cls-2 {
        fill: #fecd67;
      }

      .cls-3 {
        stroke: none;
      }

      .cls-4 {
        fill: none;
      }
    </style>
  </defs>
  <g id="icon-action-like" transform="translate(-551 -960)">
    <g id="Rectangle_1584" data-name="Rectangle 1584" class="cls-1" transform="translate(551 960)">
      <rect class="cls-3" width="125" height="125"/>
      <rect class="cls-4" x="1" y="1" width="123" height="123"/>
    </g>
    <g id="like" transform="translate(546 981)">
      <g id="Group_4157" data-name="Group 4157" transform="translate(55.392 14.798)">
        <g id="Group_4156" data-name="Group 4156" transform="translate(0)">
          <path id="Path_1568" data-name="Path 1568" class="cls-2" d="M229.785,130.19a4.893,4.893,0,0,0-4.878-4.878,4.878,4.878,0,1,0,0-9.757h-20c2.976-8.928,2.927-11.773,2.927-17.237A7.34,7.34,0,0,0,200.514,91H199.05a2.523,2.523,0,0,0-2.342,1.854c-2.413,9.4-6.187,20.178-15.709,22.362v35.3l8.44,2.8a24.318,24.318,0,0,0,7.708,1.268h22.88a4.878,4.878,0,1,0,0-9.757h4.878a4.878,4.878,0,0,0,0-9.757A4.893,4.893,0,0,0,229.785,130.19Z" transform="translate(-181 -91)"/>
        </g>
      </g>
      <g id="Group_4159" data-name="Group 4159" transform="translate(31 34.475)">
        <g id="Group_4158" data-name="Group 4158" transform="translate(0)">
          <path id="Path_1569" data-name="Path 1569" class="cls-2" d="M43.2,212H33.439A2.438,2.438,0,0,0,31,214.439v43.906a2.438,2.438,0,0,0,2.439,2.439H43.2a7.326,7.326,0,0,0,7.318-7.318V219.318A7.326,7.326,0,0,0,43.2,212Zm0,39.028a2.439,2.439,0,1,1,2.439-2.439A2.439,2.439,0,0,1,43.2,251.028Z" transform="translate(-31 -212)"/>
        </g>
      </g>
      <g id="Group_4161" data-name="Group 4161" transform="translate(56.943 6.592)">
        <g id="Group_4160" data-name="Group 4160">
          <path id="Path_1570" data-name="Path 1570" class="cls-2" d="M198.15,44.7,194.7,41.251a2.439,2.439,0,0,0-3.449,3.449L194.7,48.15A2.439,2.439,0,1,0,198.15,44.7Z" transform="translate(-190.537 -40.537)"/>
        </g>
      </g>
      <g id="Group_4163" data-name="Group 4163" transform="translate(84.542 6.592)">
        <g id="Group_4162" data-name="Group 4162" transform="translate(0)">
          <path id="Path_1571" data-name="Path 1571" class="cls-2" d="M367.866,41.251a2.438,2.438,0,0,0-3.449,0L360.967,44.7a2.439,2.439,0,0,0,3.449,3.449l3.449-3.449A2.439,2.439,0,0,0,367.866,41.251Z" transform="translate(-360.253 -40.537)"/>
        </g>
      </g>
      <g id="Group_4165" data-name="Group 4165" transform="translate(72.467)">
        <g id="Group_4164" data-name="Group 4164">
          <path id="Path_1572" data-name="Path 1572" class="cls-2" d="M288.439,0A2.415,2.415,0,0,0,286,2.439V7.48a2.439,2.439,0,0,0,4.879,0V2.439A2.415,2.415,0,0,0,288.439,0Z" transform="translate(-286)"/>
        </g>
      </g>
    </g>
  </g>
</svg>
