<svg xmlns="http://www.w3.org/2000/svg" width="65" height="62" viewBox="0 0 65 62"><defs><style>.a{fill:#fff;}.b,.c{stroke:none;}.c{fill:#0b0b0b;}</style></defs><g class="a"><path class="b" d="M 49.94201278686523 58.35242080688477 L 33.35205841064453 46.90187454223633 L 32.5 46.31377792358398 L 31.64793968200684 46.90187454223633 L 15.05798625946045 58.35242080688477 L 20.79178047180176 38.98260498046875 L 21.0840892791748 37.99512481689453 L 20.26755905151367 37.36754608154297 L 4.271223068237305 25.07286643981934 L 24.41345024108887 24.55636596679688 L 25.44632911682129 24.52987670898438 L 25.78973007202148 23.55539703369141 L 32.5 4.513218402862549 L 39.21026992797852 23.55538558959961 L 39.55366897583008 24.52986526489258 L 40.58655166625977 24.55635643005371 L 60.72877883911133 25.07285690307617 L 44.73244094848633 37.36754608154297 L 43.91590881347656 37.99512481689453 L 44.20822143554688 38.98260498046875 L 49.94201278686523 58.35242080688477 Z"/><path class="c" d="M 32.5 9.026409149169922 L 27.2044563293457 24.05392837524414 L 26.51766586303711 26.00289535522461 L 24.45190048217773 26.05586242675781 L 8.542430877685547 26.46382522583008 L 21.18165588378906 36.17825317382813 L 22.81472396850586 37.43340682983398 L 22.23008728027344 39.40837478637695 L 17.70206451416016 54.70484924316406 L 30.79587936401367 45.66737365722656 L 32.5 44.49117279052734 L 34.20412445068359 45.66737365722656 L 47.29793548583984 54.70484924316406 L 42.76991271972656 39.40837478637695 L 42.18527984619141 37.43340682983398 L 43.81834411621094 36.17825317382813 L 56.45756912231445 26.46382522583008 L 40.54809951782227 26.05586242675781 L 38.48233413696289 26.00289535522461 L 37.7955436706543 24.05392837524414 L 32.5 9.026409149169922 M 32.5 -3.814697265625e-06 L 40.625 23.05685043334961 L 65 23.6818962097168 L 45.64652252197266 38.55685424804688 L 52.58609771728516 61.99999618530273 L 32.5 48.13637542724609 L 12.41389846801758 61.99999618530273 L 19.35347747802734 38.55685424804688 L 0 23.6818962097168 L 24.375 23.05685043334961 L 32.5 -3.814697265625e-06 Z"/></g></svg>