<svg xmlns="http://www.w3.org/2000/svg" width="52.627" height="50.147" viewBox="0 0 52.627 50.147"><defs><style>.a{fill-rule:evenodd;}.b{fill:none;stroke:#0b0b0b;stroke-width:5px;}</style></defs><g transform="translate(-1005 -1012.853)"><g transform="translate(19.443 1)"><g transform="translate(993.184 1011.853)"><path class="a" d="M50.743,55.555l-8.5-9.151-5.452,5.187,8.561,9.172Z" transform="translate(-20.236 -25.576)"/><path class="a" d="M25.635,60.228l-6.023,5.729c-.007.007-.009.016-.016.023a.165.165,0,0,0-.022.016c-1.781,1.954-1.352,4.937,1.04,7.253a7.449,7.449,0,0,0,5.035,2.19,5.831,5.831,0,0,0,4.135-1.755h0L34.2,69.41Z" transform="translate(-10.165 -33.179)"/><path class="a" d="M72.479.119a.739.739,0,0,0-.567.274.745.745,0,0,0-.191.12l-20.4,19.4,8.489,9.142L72.759,16.542c.016-.016.022-.036.036-.052a.747.747,0,0,0,.433-.675V.869a.75.75,0,0,0-.75-.75" transform="translate(-28.229 -0.119)"/></g><line class="b" x2="15.943" transform="translate(985.557 1059.5)"/></g><line class="b" x2="15.943" transform="translate(1036.057 1060.5)"/></g></svg>