<svg xmlns="http://www.w3.org/2000/svg" width="63.818" height="60.417" viewBox="0 0 63.818 60.417"><defs><style>.a{fill:none;stroke:#f3eb19;stroke-width:5px;}.b{fill:#f3eb19;fill-rule:evenodd;}.c{fill:#0b0b0b;}.d,.e{stroke:none;}.e{fill:#0b0b0b;}</style></defs><g transform="translate(-857.86 -990.213)"><line class="a" x2="52" transform="translate(865 1047)"/><g transform="translate(-242.01 330.118) rotate(-19)"><g transform="translate(853.364 974.838) rotate(67)"><g class="b" transform="translate(0)"><path class="d" d="M 44.93507385253906 51.48510360717773 L 43.43507385253906 51.48510360717773 L 36.30087280273438 51.48510360717773 L 34.80087280273438 51.48510360717773 L 34.80087280273438 49.98510360717773 L 34.80087280273438 47.4160270690918 L 28.15918350219727 41.39480209350586 L 27.62160301208496 40.90744400024414 L 27.67000389099121 40.18345260620117 L 30.04807281494141 4.610923767089844 L 30.14166259765625 3.210973978042603 L 31.54473304748535 3.210973978042603 L 32.42280197143555 3.210973978042603 L 32.42280197143555 -1.756756067276001 L 32.42280197143555 -3.256756067276001 L 33.92280197143555 -3.256756067276001 L 45.81315231323242 -3.256756067276001 L 47.31315231323242 -3.256756067276001 L 47.31315231323242 -1.756756067276001 L 47.31315231323242 3.210973978042603 L 48.19121170043945 3.210973978042603 L 49.59428405761719 3.210973978042603 L 49.68787384033203 4.610923767089844 L 52.06594467163086 40.18345260620117 L 52.11434173583984 40.90744400024414 L 51.57676315307617 41.39480209350586 L 44.93507385253906 47.4160270690918 L 44.93507385253906 49.98510360717773 L 44.93507385253906 51.48510360717773 Z"/><path class="e" d="M 43.43507385253906 49.98510360717773 L 43.43507385253906 46.7512321472168 L 50.56928253173828 40.28350448608398 L 48.19121170043945 4.710973739624023 L 45.81315231323242 4.710973739624023 L 45.81315231323242 -1.756756067276001 L 33.92280197143555 -1.756756067276001 L 33.92280197143555 4.710973739624023 L 31.54473304748535 4.710973739624023 L 29.16666412353516 40.28350448608398 L 36.30087280273438 46.7512321472168 L 36.30087280273438 49.98510360717773 L 43.43507385253906 49.98510360717773 M 46.43507385253906 52.98510360717773 L 43.43507385253906 52.98510360717773 L 36.30087280273438 52.98510360717773 L 33.30087280273438 52.98510360717773 L 33.30087280273438 49.98510360717773 L 33.30087280273438 48.08081817626953 L 27.15170288085938 42.506103515625 L 26.0765438079834 41.5313835144043 L 26.17334365844727 40.08339309692383 L 28.55141258239746 4.510863780975342 L 28.73859405517578 1.710973858833313 L 30.92280387878418 1.710973858833313 L 30.92280387878418 -1.756756067276001 L 30.92280387878418 -4.75675630569458 L 33.92280197143555 -4.75675630569458 L 45.81315231323242 -4.75675630569458 L 48.81315231323242 -4.75675630569458 L 48.81315231323242 -1.756756067276001 L 48.81315231323242 1.710973858833313 L 50.99735260009766 1.710973858833313 L 51.18453216552734 4.510863780975342 L 53.56260299682617 40.08339309692383 L 53.65940475463867 41.5313835144043 L 52.58424377441406 42.506103515625 L 46.43507385253906 48.08081817626953 L 46.43507385253906 49.98510360717773 L 46.43507385253906 52.98510360717773 Z"/></g><g class="b" transform="translate(-6.012 -25.988)"><path class="d" d="M 43.07391738891602 86.69491577148438 C 43.07377624511719 86.69491577148438 43.07370376586914 86.69491577148438 43.07356643676758 86.69491577148438 C 41.47088623046875 86.69474029541016 40.1670036315918 85.39025115966797 40.1670036315918 83.78697204589844 L 40.1670036315918 77.98699951171875 L 40.1670036315918 76.48699951171875 L 41.6670036315918 76.48699951171875 L 50.0932731628418 76.48699951171875 L 51.5932731628418 76.48699951171875 L 51.5932731628418 77.98699951171875 L 51.5932731628418 80.79598236083984 L 51.5932731628418 81.59907531738281 L 50.92492294311523 82.04433441162109 L 44.68071365356445 86.20421600341797 C 44.20155334472656 86.52469635009766 43.64511108398438 86.69491577148438 43.07391738891602 86.69491577148438 Z"/><path class="e" d="M 41.6670036315918 77.98699951171875 L 41.6670036315918 83.78697204589844 C 41.6670036315918 84.61419677734375 42.34441757202148 85.19491577148438 43.07372665405273 85.19491577148438 C 43.33513259887695 85.19491577148438 43.60307693481445 85.12038421630859 43.84906387329102 84.95586395263672 L 50.0932731628418 80.79598236083984 L 50.0932731628418 77.98699951171875 L 41.6670036315918 77.98699951171875 M 38.6670036315918 74.98699951171875 L 41.6670036315918 74.98699951171875 L 50.0932731628418 74.98699951171875 L 53.0932731628418 74.98699951171875 L 53.0932731628418 77.98699951171875 L 53.0932731628418 80.79598236083984 L 53.0932731628418 82.40216064453125 L 51.75656509399414 83.29267120361328 L 45.51235580444336 87.45255279541016 C 44.78429794311523 87.93821716308594 43.94113922119141 88.19491577148438 43.07372283935547 88.19491577148438 C 40.64385604858398 88.19491577148438 38.6670036315918 86.21752166748047 38.6670036315918 83.78697204589844 L 38.6670036315918 77.98699951171875 L 38.6670036315918 74.98699951171875 Z"/></g></g><path class="c" d="M7021.375,3590.75l5.125,12.125,7.5-2.625-5.875-14.375Z" transform="translate(-6159 -2583)"/></g></g></svg>