<?xml version="1.0" ?><svg height="64" id="svg12589" version="1.1" viewBox="0 0 16.933333 16.933334" width="64" xmlns="http://www.w3.org/2000/svg" xmlns:cc="http://creativecommons.org/ns#" xmlns:dc="http://purl.org/dc/elements/1.1/" xmlns:inkscape="http://www.inkscape.org/namespaces/inkscape" xmlns:rdf="http://www.w3.org/1999/02/22-rdf-syntax-ns#" xmlns:sodipodi="http://sodipodi.sourceforge.net/DTD/sodipodi-0.dtd" xmlns:svg="http://www.w3.org/2000/svg"><defs id="defs12583"/><g id="layer1" transform="translate(0,-280.06665)"><path d="m 12.444476,281.31048 c -0.33458,0.003 -0.67077,0.12747 -0.93534,0.36484 l -7.7168397,6.92619 a 0.26460982,0.26460982 0 0 0 -0.0744,0.10903 l -1.58801,4.49792 a 0.26460982,0.26460982 0 0 0 0.0625,0.27389 l 0.078,0.078 -1.1343,1.13636 a 0.26460982,0.26460982 0 0 0 0.10128,0.4377 l 1.5880201,0.52917 a 0.26460982,0.26460982 0 0 0 0.2713,-0.0641 l 0.6066798,-0.60668 0.077,0.077 a 0.26460982,0.26460982 0 0 0 0.27544,0.0625 l 4.4979099,-1.5875 a 0.26460982,0.26460982 0 0 0 0.10956,-0.0724 l 6.9236099,-7.71891 c 0.47472,-0.52914 0.50539,-1.34414 -0.01,-1.85932 l -2.206591,-2.2071 c -0.25759,-0.25759 -0.59146,-0.37932 -0.92604,-0.37672 z m -0.005,0.52142 c 0.20099,-0.003 0.398521,0.0714 0.55552,0.22841 l 2.20917,2.20709 c 0.31399,0.314 0.296471,0.78905 -0.0119,1.13275 l -6.7380879,7.51014 -4.1025898,-4.10311 7.5106497,-6.73706 c 0.17186,-0.15418 0.37624,-0.23508 0.57723,-0.23822 z m -0.009,1.14411 a 0.26460982,0.26460982 0 0 0 -0.17415,0.0708 l -6.0859401,5.55625 a 0.26460982,0.26460982 0 0 0 -0.01,0.38086 l 2.11719,2.11718 a 0.26460982,0.26460982 0 0 0 0.3829202,-0.008 l 5.5567679,-6.08593 a 0.26460982,0.26460982 0 0 0 -0.008,-0.36536 l -1.58801,-1.5875 a 0.26460982,0.26460982 0 0 0 -0.19121,-0.0786 z m -0.004,0.63097 1.228351,1.23042 -5.1991699,5.69371 -1.7223705,-1.7229 z m -8.3498799,5.67356 3.90416,3.90467 -3.9429199,1.39475 -1.3534001,-1.35393 z m -1.4324699,4.65398 0.6847201,0.68419 -0.49041,0.49041 -1.0273301,-0.3421 z" id="path7188" style="color:#000000;font-style:normal;font-variant:normal;font-weight:normal;font-stretch:normal;font-size:medium;line-height:normal;font-family:sans-serif;font-variant-ligatures:normal;font-variant-position:normal;font-variant-caps:normal;font-variant-numeric:normal;font-variant-alternates:normal;font-feature-settings:normal;text-indent:0;text-align:start;text-decoration:none;text-decoration-line:none;text-decoration-style:solid;text-decoration-color:#000000;letter-spacing:normal;word-spacing:normal;text-transform:none;writing-mode:lr-tb;direction:ltr;text-orientation:mixed;dominant-baseline:auto;baseline-shift:baseline;text-anchor:start;white-space:normal;shape-padding:0;clip-rule:nonzero;display:inline;overflow:visible;visibility:visible;opacity:1;isolation:auto;mix-blend-mode:normal;color-interpolation:sRGB;color-interpolation-filters:linearRGB;solid-color:#000000;solid-opacity:1;vector-effect:none;fill:#000000;fill-opacity:1;fill-rule:nonzero;stroke:none;stroke-width:0.5291667;stroke-linecap:butt;stroke-linejoin:miter;stroke-miterlimit:4;stroke-dasharray:none;stroke-dashoffset:0;stroke-opacity:1;color-rendering:auto;image-rendering:auto;shape-rendering:auto;text-rendering:auto;enable-background:accumulate"/></g></svg>