<?xml version="1.0" ?><!DOCTYPE svg  PUBLIC '-//W3C//DTD SVG 1.1//EN'  'http://www.w3.org/Graphics/SVG/1.1/DTD/svg11.dtd'><svg enable-background="new 0 0 48 48" id="Layer_1" version="1.1" viewBox="0 0 48 48" xml:space="preserve" xmlns="http://www.w3.org/2000/svg" xmlns:xlink="http://www.w3.org/1999/xlink"><g><path d="M24.6,19.8c-0.1-0.1-0.2-0.1-0.4-0.1s-0.3,0.1-0.4,0.1L11.1,32.6c-1.6,1.6-1.6,4.2,0,5.7c0.8,0.8,1.8,1.2,2.9,1.2   s2.1-0.4,2.9-1.2l12.9-12.9c0.2-0.2,0.2-0.5,0-0.7L24.6,19.8z M16.1,37.7c-1.2,1.2-3.2,1.2-4.3,0c-1.2-1.2-1.2-3.1,0-4.3l9.9-9.9   c0,0,4.2,4.3,4.3,4.3L16.1,37.7z M26.6,27.2c0-0.1-4.3-4.4-4.3-4.4l1.9-1.9l4.3,4.3L26.6,27.2z"/><path d="M15.2,31.2c-0.4,0.4-0.6,0.9-0.6,1.5c0,0.6,0.2,1.1,0.6,1.5s0.9,0.6,1.5,0.6c0.6,0,1.1-0.2,1.5-0.6s0.6-0.9,0.6-1.5   c0-0.6-0.2-1.1-0.6-1.5C17.4,30.4,16,30.4,15.2,31.2z M17.5,33.5c-0.4,0.4-1.1,0.4-1.6,0c-0.2-0.2-0.3-0.5-0.3-0.8s0.1-0.6,0.3-0.8   c0.2-0.2,0.5-0.3,0.8-0.3s0.6,0.1,0.8,0.3s0.3,0.5,0.3,0.8S17.7,33.3,17.5,33.5z"/><path d="M27.9,22c0.1,0.1,0.2,0.1,0.4,0.1s0.3,0,0.4-0.1l4.9-4.9c0.2-0.2,0.2-0.5,0-0.7s-0.5-0.2-0.7,0l-4.9,4.9   C27.7,21.5,27.7,21.8,27.9,22z"/><path d="M26.2,20.1c0.1,0,0.3,0,0.4-0.1l3.1-3.1c0.2-0.2,0.2-0.5,0-0.7s-0.5-0.2-0.7,0l-3.1,3.1c-0.2,0.2-0.2,0.5,0,0.7   C26,20.1,26.1,20.1,26.2,20.1z"/><path d="M33,20.2l-3.1,3.1c-0.2,0.2-0.2,0.5,0,0.7c0.1,0.1,0.2,0.1,0.4,0.1s0.3,0,0.4-0.1l3.1-3.1c0.2-0.2,0.2-0.5,0-0.7   S33.2,20,33,20.2z"/><path d="M38,9.7c-0.9,0-1.7,0.8-1.7,1.7s0.8,1.7,1.7,1.7c0.9,0,1.7-0.8,1.7-1.7S39,9.7,38,9.7z M38,12.1c-0.4,0-0.7-0.3-0.7-0.7   s0.3-0.7,0.7-0.7s0.7,0.3,0.7,0.7S38.4,12.1,38,12.1z"/></g></svg>