<?xml version="1.0" standalone="no"?>
<!DOCTYPE svg PUBLIC "-//W3C//DTD SVG 1.1//EN" "http://www.w3.org/Graphics/SVG/1.1/DTD/svg11.dtd" >
<svg xmlns="http://www.w3.org/2000/svg">
<metadata>Generated by IcoMoon</metadata>
<defs>
<font id="rt-icon" horiz-adv-x="1024">
<font-face units-per-em="1024" ascent="960" descent="-64" />
<missing-glyph horiz-adv-x="1024" />
<glyph unicode="&#x20;" horiz-adv-x="512" d="" />
<glyph unicode="&#xe900;" glyph-name="icon-abc" d="M790.528 190.656h-72.32v-53.376h72.32c14.184 0.716 25.413 12.391 25.413 26.688s-11.229 25.972-25.349 26.685l-0.064 0.003zM788.224 264.32c0 0.052 0.001 0.114 0.001 0.175 0 14.195-11.257 25.76-25.331 26.255l-0.045 0.001h-44.64v-46.72h60.416c5.875 4.731 9.602 11.923 9.602 19.985 0 0.106-0.001 0.213-0.002 0.319v-0.016zM907.36 431.424h-175.072c64.414 0.309 116.513 52.597 116.513 117.055 0 0.147 0 0.293-0.001 0.44v-0.023 263.392c0 0.096 0 0.21 0 0.324 0 63.8-51.72 115.52-115.52 115.52-0.349 0-0.698-0.002-1.046-0.005h-265.803c-0.394 0.005-0.859 0.007-1.326 0.007-64.268 0-116.486-51.596-117.489-115.625l-0.001-0.094v-263.488c0.191-24.159 7.764-46.512 20.57-64.957l-0.25 0.381-4.704 4.96c-21.363 21.060-50.715 34.066-83.104 34.066s-61.741-13.006-83.118-34.079l0.014 0.014-162.624-161.216c-21.254-21.030-34.415-50.202-34.415-82.448s13.161-61.418 34.405-82.438l0.010-0.010 162.688-161.152c21.407-21.041 50.787-34.031 83.2-34.031s61.793 12.99 83.217 34.048l-0.017-0.017 162.144 161.28c15.944 15.325 27.148 35.475 31.261 58.096l0.099 0.656v-135.616c0.866-64.999 53.708-117.369 118.806-117.472h231.53c64.469 0.236 116.64 52.553 116.64 117.055 0 0.113 0 0.226 0 0.338v-0.017 229.376c0 0.049 0 0.107 0 0.165 0 63.8-51.72 115.52-115.52 115.52-0.383 0-0.765-0.002-1.146-0.006h0.058zM614.080 831.040c0.181 0.001 0.396 0.001 0.61 0.001 40.885 0 77.951-16.352 105.015-42.874l-0.025 0.024c5.018-4.913 8.129-11.757 8.129-19.327 0-7.443-3.008-14.185-7.874-19.074l0.001 0.001c-5.005-5.015-11.925-8.118-19.57-8.118-7.5 0-14.303 2.987-19.284 7.836l0.006-0.006c-17.025 16.774-40.411 27.133-66.217 27.133-52.118 0-94.368-42.25-94.368-94.368s42.25-94.368 94.368-94.368c28.61 0 54.247 12.732 71.553 32.839l0.104 0.124c5.096 5.831 12.546 9.493 20.852 9.493 6.831 0 13.083-2.477 17.907-6.582l-0.039 0.033c5.89-4.992 9.603-12.396 9.603-20.667 0-6.8-2.51-13.014-6.654-17.765l0.027 0.032c-27.628-32.823-68.736-53.535-114.68-53.535-82.622 0-149.6 66.978-149.6 149.6s66.978 149.6 149.6 149.6c0.222 0 0.445 0 0.667-0.001h-0.034zM455.744 236.256c-3.887-10.789-14.035-18.363-25.952-18.363-3.209 0-6.289 0.549-9.153 1.559l0.193-0.059-40.48 13.824-86.976-86.176 13.6-40.96c0.859-2.529 1.354-5.442 1.354-8.47 0-12.035-7.826-22.243-18.666-25.811l-0.192-0.055c-2.557-0.865-5.501-1.364-8.562-1.364-12.051 0-22.295 7.737-26.036 18.515l-0.058 0.193-74.272 223.68c-0.867 2.534-1.368 5.454-1.368 8.491 0 7.597 3.133 14.463 8.178 19.375l0.006 0.006c4.98 4.869 11.8 7.872 19.322 7.872 3.187 0 6.247-0.539 9.096-1.531l-0.194 0.059 223.136-76.16c10.856-3.713 18.522-13.828 18.522-25.733 0-3.185-0.549-6.242-1.557-9.081l0.059 0.19zM557.024 315.744v-46.4c-4.226 23.279-15.44 43.428-31.356 58.718l-0.036 0.034-124.8 123.36c18.4-12.436 41.051-19.901 65.438-20.032h209.442c-0.356 0.004-0.777 0.006-1.198 0.006-64.256 0-116.466-51.577-117.489-115.59l-0.001-0.096zM813.376 67.52h-100.736c-15.511 0.272-28.049 12.631-28.607 28.045l-0.001 0.051v210.88c0.71 14.685 12.789 26.323 27.586 26.323 0.36 0 0.717-0.007 1.074-0.020l-0.051 0.002h72.256c0.038 0 0.083 0 0.128 0 44.678 0 80.896-36.218 80.896-80.896 0-0.011 0-0.023 0-0.034v0.002c-0.003-12.394-2.873-24.117-7.981-34.544l0.205 0.464c22.067-14.964 36.377-39.926 36.377-68.23 0-45.033-36.224-81.606-81.124-82.169l-0.053-0.001zM266.432 218.72l47.040 47.040-70.4 24.288z" />
<glyph unicode="&#xe901;" glyph-name="icon-arrow-down" d="M511.968 152.32c-0.025 0-0.055 0-0.085 0-19.768 0-37.661 8.023-50.602 20.991l-440.289 440.289c-13.983 13.119-22.693 31.714-22.693 52.343 0 39.605 32.107 71.712 71.712 71.712 20.653 0 39.267-8.731 52.352-22.703l0.037-0.040 389.568-389.504 389.6 389.504c12.91 12.597 30.579 20.368 50.064 20.368 39.605 0 71.712-32.107 71.712-71.712 0-19.484-7.771-37.154-20.382-50.078l0.014 0.015-440.288-440.224c-12.939-12.95-30.82-20.96-50.571-20.96-0.052 0-0.104 0-0.157 0h0.008z" />
<glyph unicode="&#xe902;" glyph-name="icon-audio-off" d="M587.386 81.115c0-0.086 0.001-0.188 0.001-0.289 0-21.279-12.391-39.664-30.351-48.333l-0.321-0.14c-6.645-3.24-14.458-5.134-22.712-5.134-12.987 0-24.878 4.688-34.076 12.463l0.078-0.064-291.499 243.81h-155.209c-29.477 0.192-53.299 24.133-53.299 53.637 0 0.172 0.001 0.343 0.002 0.515v-0.026 214.552c0 0.073-0.001 0.159-0.001 0.245 0 29.504 23.821 53.444 53.279 53.637h155.276l291.499 243.81c9.115 7.717 21.005 12.408 33.99 12.408 8.258 0 16.073-1.897 23.033-5.28l-0.313 0.137c18.287-8.876 30.671-27.305 30.671-48.626 0-0.048 0-0.095 0-0.143v0.007-727.186zM999.18 602.526c-9.987 9.976-23.778 16.146-39.010 16.146s-29.023-6.17-39.010-16.146v0l-52.029-52.029-52.029 52.029c-9.84 9.223-23.113 14.888-37.708 14.888-30.485 0-55.198-24.713-55.198-55.198 0-14.596 5.665-27.868 14.916-37.739l-0.028 0.030 52.029-52.029-52.029-52.029c-9.223-9.84-14.888-23.113-14.888-37.708 0-30.485 24.713-55.198 55.198-55.198 14.596 0 27.868 5.665 37.739 14.916l-0.030-0.028 52.029 52.029 52.029-52.029c9.84-9.223 23.113-14.888 37.708-14.888 30.485 0 55.198 24.713 55.198 55.198 0 14.596-5.665 27.868-14.916 37.739l0.028-0.030-52.029 52.029 52.029 52.029c9.976 9.987 16.146 23.778 16.146 39.010s-6.17 29.023-16.146 39.010v0z" />
<glyph unicode="&#xe903;" glyph-name="icon-audio-on" d="M512.299 127.403c0-0.002 0-0.004 0-0.006 0-25.685-20.822-46.507-46.507-46.507-11.325 0-21.704 4.048-29.77 10.776l0.074-0.060-254.208 210.688h-135.381c-0.013 0-0.028 0-0.043 0-25.661 0-46.464 20.803-46.464 46.464v0 185.301c0 25.685 20.822 46.507 46.507 46.507v0h135.424l254.208 210.645c7.992 6.667 18.371 10.715 29.696 10.715 25.685 0 46.507-20.822 46.507-46.507 0-0.002 0-0.004 0-0.006v0-628.011zM690.987 199.936h-3.328c-0.012 0-0.025 0-0.039 0-12.832 0-24.448 5.201-32.857 13.611l-6.229 6.229c-8.427 8.411-13.64 20.040-13.64 32.886 0 10.435 3.44 20.066 9.247 27.822l-0.087-0.121c33.225 44.401 53.201 100.395 53.201 161.054 0 64.771-22.776 124.223-60.755 170.784l0.386-0.489c-6.517 7.937-10.468 18.197-10.468 29.38 0 12.817 5.19 24.423 13.583 32.829l-0.001-0.001 6.187 6.229c8.262 8.426 19.764 13.649 32.485 13.649 0.955 0 1.903-0.029 2.844-0.087l-0.129 0.006c13.617-0.713 25.594-7.175 33.642-16.985l0.065-0.082c52.119-63.572 83.709-145.717 83.709-235.241 0-83.988-27.804-161.482-74.709-223.78l0.686 0.951c-7.854-10.419-19.804-17.389-33.412-18.506l-0.167-0.011zM883.2 56.363c-8.176-9.634-20.094-15.877-33.48-16.466l-0.098-0.003h-1.963c-0.012 0-0.025 0-0.039 0-12.832 0-24.448 5.201-32.857 13.611l-6.101 6.101c-8.406 8.414-13.605 20.034-13.605 32.868 0 11.435 4.127 21.907 10.973 30.006l-0.057-0.069c72.363 85.576 116.352 197.169 116.352 319.036 0 126.23-47.195 241.438-124.902 328.939l0.443-0.509c-7.255 8.165-11.688 18.98-11.688 30.83 0 12.814 5.183 24.418 13.566 32.83l6.1 6.1c8.232 8.446 19.72 13.685 32.431 13.685 0.599 0 1.195-0.012 1.788-0.035l-0.085 0.003c13.305-0.406 25.147-6.339 33.367-15.569l0.041-0.047c93.424-104.901 150.505-243.947 150.505-396.327 0-147.106-53.199-281.787-141.408-385.852l0.716 0.867z" />
<glyph unicode="&#xe904;" glyph-name="icon-back" d="M1024 512h-780.8l358.4 358.4-89.6 89.6-512-512 512-512 89.6 89.6-358.4 358.4h780.8v128z" />
<glyph unicode="&#xe905;" glyph-name="icon-badge" d="M1014.432 356.608l-39.808 78.112c-2.039 3.851-3.236 8.418-3.236 13.264s1.197 9.413 3.312 13.421l-0.076-0.157 39.808 78.144c5.951 11.481 9.441 25.064 9.441 39.463 0 34.416-19.938 64.176-48.894 78.358l-0.514 0.228-80 40.768c-8.382 4.21-14.441 11.987-16.226 21.283l-0.030 0.189-15.648 85.664c-8.783 42.536-45.932 74.059-90.444 74.059-5.011 0-9.929-0.4-14.724-1.169l0.527 0.070-89.6-12.192c-1.371-0.208-2.954-0.327-4.564-0.327-8.404 0-16.051 3.239-21.761 8.538l0.020-0.019-65.312 60.448c-16.949 15.649-39.69 25.246-64.672 25.246s-47.723-9.597-64.737-25.306l0.065 0.059-65.216-60.48c-5.69-5.28-13.337-8.519-21.74-8.519-1.61 0-3.192 0.119-4.738 0.348l0.175-0.021-89.6 12.192c-4.267 0.699-9.185 1.099-14.196 1.099-44.511 0-81.66-31.523-90.34-73.461l-0.103-0.597-15.648-85.664c-1.815-9.485-7.874-17.262-16.083-21.393l-0.173-0.079-80-40.768c-29.476-14.399-49.42-44.155-49.42-78.571 0-14.405 3.494-27.993 9.681-39.964l-0.229 0.487 39.616-78.112c2.039-3.851 3.236-8.418 3.236-13.264s-1.197-9.413-3.312-13.421l0.076 0.157-39.808-78.144c-5.951-11.481-9.441-25.064-9.441-39.463 0-34.416 19.938-64.176 48.894-78.358l0.514-0.228 80-40.768c8.382-4.21 14.441-11.987 16.226-21.283l0.030-0.189 15.648-85.664c8.783-42.536 45.932-74.059 90.444-74.059 5.011 0 9.929 0.4 14.724 1.169l-0.527-0.070 89.6 12.192c1.371 0.208 2.954 0.327 4.564 0.327 8.404 0 16.051-3.239 21.761-8.538l-0.020 0.019 65.152-60.448c16.949-15.649 39.69-25.246 64.672-25.246s47.723 9.597 64.737 25.306l-0.065-0.059 65.152 60.448c5.69 5.28 13.337 8.519 21.74 8.519 1.61 0 3.192-0.119 4.738-0.348l-0.175 0.021 89.6-12.192c3.996-0.57 8.612-0.896 13.303-0.896 0.014 0 0.029 0 0.043 0h-0.002c0.431-0.007 0.939-0.011 1.448-0.011 44.318 0 81.287 31.468 89.781 73.279l0.1 0.589 15.968 85.696c1.815 9.485 7.874 17.262 16.083 21.393l0.173 0.079 80 40.768c29.498 14.4 49.46 44.174 49.46 78.61 0 14.389-3.485 27.963-9.657 39.926l0.229-0.488z" />
<glyph unicode="&#xe906;" d="M1024 448c0-282.77-229.23-512-512-512s-512 229.23-512 512c0 282.77 229.23 512 512 512s512-229.23 512-512z" />
<glyph unicode="&#xe907;" d="M733.6 562.656c-4.093 5.203-9.513 9.19-15.754 11.473l-0.246 0.079c0.115-1.182 0.18-2.556 0.18-3.945 0-4.050-0.556-7.97-1.597-11.687l0.073 0.305-80.448-265.024c-1.603-4.869-4.959-8.786-9.304-11.086l-0.104-0.050c-4.301-2.59-9.487-4.132-15.032-4.16h-247.944q-32.224 0-38.688 18.816c-0.833 1.611-1.322 3.517-1.322 5.537 0 2.211 0.585 4.285 1.609 6.076l-0.032-0.060c2.183 2.516 5.386 4.098 8.958 4.098 0.44 0 0.875-0.024 1.303-0.071l-0.053 0.005h233.6c1.585-0.18 3.421-0.283 5.282-0.283 11.001 0 21.163 3.588 29.381 9.658l-0.135-0.095c8.971 11.601 15.645 25.456 19.066 40.546l0.134 0.702 73.6 243.392c1.387 3.805 2.189 8.198 2.189 12.779 0 8.294-2.629 15.974-7.1 22.251l0.080-0.118c-6.484 9.166-17.043 15.078-28.982 15.078-0.578 0-1.152-0.014-1.723-0.041l0.081 0.003h-204.576c-5.068-0.428-9.731-1.289-14.222-2.559l0.526 0.127 0.256 0.8c-3.834 0.935-8.236 1.472-12.763 1.472-0.013 0-0.026 0-0.039 0h0.002c-3.607-0.134-6.914-1.312-9.657-3.238l0.057 0.038c-2.735-1.804-5.077-3.922-7.060-6.345l-0.044-0.055c-1.943-2.499-3.693-5.324-5.128-8.329l-0.12-0.279q-2.56-5.248-4.288-9.6t-4.032-9.408c-1.422-3.183-2.897-5.871-4.559-8.426l0.143 0.234q-1.6-2.144-4.576-5.632t-4.832-6.176c-1.047-1.376-1.878-2.984-2.404-4.725l-0.028-0.107c-0.092-0.674-0.144-1.453-0.144-2.243 0-1.732 0.251-3.405 0.72-4.984l-0.032 0.124c0.519-1.787 0.818-3.84 0.818-5.962 0-0.312-0.006-0.622-0.019-0.93l0.001 0.044c-1.443-9.683-4.025-18.409-7.649-26.569l0.257 0.649c-3.22-8.678-7.069-16.161-11.679-23.096l0.255 0.408q-1.088-1.344-5.92-6.048c-2.56-2.181-4.584-4.914-5.899-8.019l-0.053-0.141q-1.088-1.344 0-7.52c0.441-2.196 0.694-4.72 0.694-7.304 0-0.459-0.008-0.915-0.024-1.37l0.002 0.066c-1.461-9.092-3.8-17.227-6.988-24.922l0.268 0.73c-3.496-9.614-7.302-17.761-11.721-25.513l0.425 0.809c-1.439-2.328-2.948-4.346-4.615-6.221l0.039 0.045c-1.941-2.109-3.494-4.609-4.525-7.364l-0.051-0.156c-0.191-1.13-0.3-2.432-0.3-3.76s0.109-2.63 0.319-3.898l-0.019 0.138c0.248-1.212 0.39-2.606 0.39-4.032s-0.142-2.82-0.413-4.167l0.023 0.135c-2.226-9.478-4.993-17.675-8.43-25.513l0.366 0.937c-3.87-9.599-7.928-17.682-12.548-25.39l0.452 0.814c-1.493-2.455-2.949-4.544-4.521-6.538l0.105 0.138c-1.476-1.858-2.943-3.946-4.286-6.119l-0.162-0.281c-0.997-1.619-1.744-3.509-2.127-5.528l-0.017-0.104c-0.010-0.195-0.016-0.423-0.016-0.653 0-1.649 0.299-3.229 0.846-4.687l-0.030 0.092c0.524-1.459 0.827-3.142 0.827-4.897 0-0.315-0.010-0.628-0.029-0.938l0.002 0.042q-0.256-3.744-1.088-9.952t-0.8-7.232c-1.816-4.901-2.867-10.563-2.867-16.469 0-6.263 1.181-12.25 3.333-17.75l-0.114 0.331c5.412-14.458 14.656-26.435 26.503-35.050l0.217-0.15c10.852-8.726 24.725-14.098 39.844-14.367l0.060-0.001h248.096c12.5 0.125 23.952 4.507 33.002 11.762l-0.106-0.082c9.655 7.043 16.864 16.924 20.439 28.407l0.105 0.393 73.888 243.392c1.355 3.743 2.139 8.063 2.139 12.565 0 8.22-2.611 15.83-7.049 22.046l0.078-0.116zM447.776 562.112l5.632 17.184c0.822 2.495 2.365 4.566 4.381 6.024l0.035 0.024c1.852 1.532 4.232 2.487 6.832 2.56h163.216c0.156 0.015 0.337 0.023 0.52 0.023 2.013 0 3.789-1.016 4.843-2.563l0.013-0.020c0.621-1.025 0.989-2.265 0.989-3.59 0-0.883-0.163-1.728-0.461-2.506l0.016 0.048-5.632-17.184c-0.833-2.497-2.386-4.568-4.412-6.024l-0.036-0.024c-1.852-1.532-4.232-2.487-6.832-2.56h-163.216c-0.156-0.015-0.337-0.023-0.52-0.023-2.013 0-3.789 1.016-4.843 2.563l-0.013 0.020c-0.605 1.015-0.962 2.238-0.962 3.544 0 0.888 0.165 1.738 0.467 2.52l-0.016-0.048zM425.376 493.344l5.632 17.184c0.824 2.494 2.367 4.564 4.381 6.024l0.035 0.024c1.851 1.534 4.232 2.489 6.833 2.56h163.215c0.156 0.015 0.337 0.023 0.52 0.023 2.013 0 3.789-1.016 4.843-2.563l0.013-0.020c0.621-1.025 0.989-2.265 0.989-3.59 0-0.883-0.163-1.728-0.461-2.506l0.016 0.048-5.632-17.184c-0.822-2.495-2.365-4.566-4.381-6.024l-0.035-0.024c-1.851-1.534-4.232-2.489-6.833-2.56h-163.215c-0.156-0.015-0.337-0.023-0.52-0.023-2.013 0-3.789 1.016-4.843 2.563l-0.013 0.020c-0.583 0.997-0.927 2.196-0.927 3.475 0 0.914 0.176 1.788 0.496 2.588l-0.017-0.047z" />
<glyph unicode="&#xe908;" glyph-name="icon-bigbook" d="M1008 709.216c-9.243 12.034-21.534 21.296-35.73 26.694l-0.558 0.186c0.242-2.639 0.38-5.708 0.38-8.81 0-9.548-1.307-18.79-3.751-27.559l0.171 0.72-184.224-616.832c-3.65-11.286-11.329-20.4-21.301-25.835l-0.235-0.117c-9.83-5.99-21.71-9.554-34.419-9.6h-567.533q-73.792 0-88.544 43.744c-1.912 3.748-3.033 8.175-3.033 12.864 0 5.147 1.35 9.978 3.715 14.159l-0.075-0.143c4.962 5.843 12.315 9.526 20.527 9.526 0.998 0 1.983-0.054 2.953-0.16l-0.12 0.011h534.4c3.616-0.414 7.806-0.65 12.051-0.65 25.233 0 48.518 8.345 67.244 22.425l-0.287-0.207c20.574 27.051 35.865 59.297 43.663 94.365l0.305 1.635 168.48 566.4c3.192 8.864 5.037 19.091 5.037 29.75 0 19.265-6.029 37.123-16.302 51.789l0.193-0.291c-14.714 21.305-39.002 35.089-66.509 35.089-1.267 0-2.528-0.029-3.781-0.087l0.178 0.007h-467.968c-11.601-0.985-22.276-2.979-32.549-5.924l1.189 0.292 0.608 1.888c-8.775 2.176-18.848 3.424-29.213 3.424-0.001 0-0.002 0-0.003 0v0c-8.305-0.204-15.948-2.868-22.276-7.287l0.132 0.087c-6.269-4.144-11.638-9.004-16.187-14.561l-0.101-0.127c-4.439-5.8-8.443-12.366-11.721-19.34l-0.279-0.66q-5.824-12.192-9.824-22.4t-9.216-21.888c-3.263-7.47-6.654-13.774-10.484-19.77l0.34 0.57q-3.68-4.992-10.464-13.12t-11.072-14.368c-2.39-3.212-4.284-6.962-5.473-11.014l-0.063-0.25c-0.219-1.599-0.344-3.447-0.344-5.325 0-4.006 0.57-7.88 1.633-11.543l-0.073 0.292c1.186-4.154 1.868-8.925 1.868-13.855 0-0.754-0.016-1.505-0.048-2.251l0.004 0.107c-3.288-22.524-9.195-42.838-17.497-61.867l0.601 1.547c-7.366-20.201-16.18-37.623-26.752-53.791l0.608 0.991q-2.464-3.2-13.536-14.048c-5.859-5.154-10.47-11.583-13.416-18.865l-0.12-0.335q-2.464-3.2-0.32-17.504c1.009-5.106 1.586-10.976 1.586-16.981 0-1.062-0.018-2.119-0.054-3.172l0.004 0.153c-3.336-21.141-8.687-40.066-15.984-57.99l0.624 1.734c-7.988-22.44-16.698-41.445-26.826-59.549l1.002 1.949c-3.295-5.424-6.748-10.12-10.567-14.488l0.103 0.12c-4.443-4.917-7.997-10.737-10.346-17.138l-0.118-0.366c-0.342-2.326-0.538-5.011-0.538-7.741 0-3.45 0.312-6.828 0.909-10.106l-0.052 0.343c0.471-2.569 0.74-5.525 0.74-8.544 0-3.615-0.386-7.14-1.12-10.535l0.059 0.327c-5.064-21.994-11.361-41.015-19.189-59.223l0.853 2.231c-8.868-22.369-18.16-41.185-28.75-59.145l1.070 1.961c-3.436-5.638-6.782-10.431-10.388-15.009l0.244 0.321c-3.353-4.253-6.699-9.046-9.766-14.028l-0.378-0.66c-2.294-3.774-4.010-8.178-4.89-12.877l-0.038-0.243c-0.021-0.431-0.033-0.936-0.033-1.444 0-3.856 0.693-7.551 1.96-10.966l-0.071 0.218c1.195-3.389 1.885-7.296 1.885-11.365 0-0.73-0.022-1.455-0.066-2.174l0.005 0.099q-0.608-8.736-2.464-23.136t-1.888-16.96c-4.075-11.307-6.431-24.355-6.431-37.953 0-14.904 2.83-29.147 7.983-42.221l-0.271 0.781c12.266-33.658 33.452-61.611 60.713-81.842l0.471-0.334c24.733-20.267 56.508-32.775 91.183-33.438l0.145-0.002h567.552c28.685 0.314 54.929 10.512 75.547 27.341l-0.219-0.173c22.196 16.53 38.715 39.576 46.802 66.287l0.238 0.913 169.088 566.4c3.102 8.706 4.895 18.749 4.895 29.211 0 19.177-6.025 36.948-16.285 51.521l0.19-0.284zM353.76 707.968l12.8 40c1.884 5.781 5.429 10.587 10.066 13.994l0.078 0.054c4.226 3.553 9.678 5.772 15.642 5.951l0.038 0.001h374.080c0.343 0.031 0.742 0.049 1.146 0.049 4.636 0 8.72-2.364 11.112-5.952l0.031-0.049c1.421-2.391 2.261-5.272 2.261-8.348 0-2.046-0.371-4.005-1.050-5.814l0.038 0.114-12.8-40c-1.887-5.78-5.431-10.586-10.067-13.994l-0.077-0.054c-4.229-3.542-9.681-5.75-15.644-5.919l-0.036-0.001h-373.984c-0.349-0.032-0.755-0.051-1.166-0.051-4.623 0-8.697 2.351-11.092 5.923l-0.030 0.048c-1.425 2.394-2.268 5.279-2.268 8.361 0 2.053 0.374 4.019 1.058 5.833l-0.038-0.114zM302.72 547.968l12.8 40c1.884 5.781 5.429 10.587 10.066 13.994l0.078 0.054c4.226 3.553 9.678 5.772 15.642 5.951l0.038 0.001h374.080c0.348 0.032 0.753 0.051 1.162 0.051 4.632 0 8.711-2.365 11.095-5.954l0.031-0.049c1.411-2.382 2.244-5.249 2.244-8.312 0-2.060-0.377-4.032-1.066-5.85l0.038 0.114-12.8-40c-1.882-5.782-5.428-10.589-10.066-13.994l-0.078-0.054c-4.226-3.553-9.678-5.772-15.642-5.951l-0.038-0.001h-373.952c-0.348-0.032-0.753-0.051-1.162-0.051-4.632 0-8.711 2.365-11.095 5.954l-0.031 0.049c-1.415 2.385-2.252 5.257-2.252 8.324 0 2.067 0.38 4.046 1.074 5.869l-0.038-0.113z" />
<glyph unicode="&#xe909;" glyph-name="icon-close" d="M605.867 448l398.677 398.763c12.011 12.011 19.44 28.605 19.44 46.933 0 36.657-29.717 66.374-66.374 66.374-18.329 0-34.922-7.429-46.933-19.44l-398.677-398.805-398.72 398.72c-12.011 12.011-28.605 19.44-46.933 19.44-36.657 0-66.374-29.717-66.374-66.374 0-18.329 7.429-34.922 19.44-46.933l398.72-398.677-398.677-398.72c-12.011-12.011-19.44-28.605-19.44-46.933 0-36.657 29.717-66.374 66.374-66.374 18.329 0 34.922 7.429 46.933 19.44l398.677 398.805 398.72-398.72c12.011-12.011 28.605-19.44 46.933-19.44 36.657 0 66.374 29.717 66.374 66.374 0 18.329-7.429 34.922-19.44 46.933v0z" />
<glyph unicode="&#xe90a;" glyph-name="icon-done" d="M512 960c-282.77 0-512-229.23-512-512s229.23-512 512-512c282.77 0 512 229.23 512 512v0c-0.346 282.631-229.369 511.654-511.967 512h-0.033zM798.144 582.752l-327.2-324.672c-9.143-9.322-21.87-15.1-35.947-15.1-13.435 0-25.64 5.263-34.667 13.841l0.022-0.020-173.152 157.824c-10.122 9.516-16.426 22.992-16.426 37.941 0 12.996 4.764 24.879 12.642 33.998l-0.056-0.067c9.296 10.002 22.525 16.239 37.211 16.239 13.415 0 25.615-5.205 34.689-13.705l-0.028 0.026 137.312-125.76 292.48 292.704c9.361 9.361 22.292 15.15 36.576 15.15 28.568 0 51.726-23.159 51.726-51.726 0-14.284-5.79-27.215-15.15-36.576v0z" />
<glyph unicode="&#xe90b;" d="M1024 448c0-282.77-229.23-512-512-512s-512 229.23-512 512c0 282.77 229.23 512 512 512s512-229.23 512-512z" />
<glyph unicode="&#xe90c;" d="M681.504 309.28h-41.856v-30.88h41.856c8.228 0.386 14.753 7.151 14.753 15.44s-6.525 15.054-14.718 15.439l-0.035 0.001z" />
<glyph unicode="&#xe90d;" d="M680.16 351.936c0 0.031 0 0.068 0 0.105 0 8.215-6.517 14.908-14.662 15.191l-0.026 0.001h-25.824v-27.040h34.944c3.407 2.75 5.569 6.926 5.569 11.607 0 0.048 0 0.097-0.001 0.145v-0.007z" />
<glyph unicode="&#xe90e;" d="M734.336 454.112h-98.464c36.269 0.343 65.538 29.824 65.538 66.141 0 0.192-0.001 0.384-0.002 0.576v-0.029 149.504c0.001 0.162 0.002 0.353 0.002 0.545 0 36.053-29.227 65.28-65.28 65.28-0.091 0-0.182 0-0.272-0.001h-149.49c-0.134 0.001-0.293 0.002-0.451 0.002-36.418 0-65.986-29.333-66.364-65.662v-149.572c0.098-13.704 4.355-26.395 11.569-36.896l-0.145 0.224-2.656 2.816c-11.973 11.934-28.493 19.312-46.736 19.312s-34.763-7.378-46.738-19.314l-91.518-91.582c-11.956-11.987-19.349-28.53-19.349-46.8s7.393-34.813 19.351-46.801l91.519-91.519c11.994-11.941 28.535-19.323 46.8-19.323s34.806 7.382 46.802 19.325l-0.002-0.002 91.2 91.52c8.975 8.722 15.274 20.154 17.577 32.973l0.055 0.371v-76.992c0.288-36.759 30.046-66.472 66.795-66.688h130.229c36.324 0.271 65.666 29.78 65.666 66.142 0 0.192-0.001 0.384-0.002 0.575v-0.029 130.208c0.001 0.124 0.001 0.27 0.001 0.417 0 36.053-29.227 65.28-65.28 65.28-0.124 0-0.248 0-0.372-0.001h0.019zM569.408 680.96c0.064 0 0.14 0 0.215 0 23.055 0 43.941-9.288 59.119-24.327l-0.006 0.006c2.581-2.755 4.167-6.471 4.167-10.556 0-8.536-6.92-15.456-15.456-15.456-4.014 0-7.671 1.53-10.419 4.039l0.012-0.011c-9.666 9.504-22.933 15.372-37.57 15.372-29.602 0-53.6-23.998-53.6-53.6s23.998-53.6 53.6-53.6c16.288 0 30.88 7.265 40.71 18.732l0.060 0.072c2.831 3.043 6.857 4.94 11.327 4.94 8.536 0 15.456-6.92 15.456-15.456 0-3.633-1.253-6.973-3.351-9.612l0.024 0.032c-15.586-18.108-38.534-29.504-64.144-29.504-46.657 0-84.48 37.823-84.48 84.48s37.823 84.48 84.48 84.48c0.051 0 0.101 0 0.152 0h-0.008zM480.32 343.296c-2.147-6.126-7.879-10.441-14.62-10.441-1.801 0-3.529 0.308-5.137 0.874l0.108-0.033-22.784 7.84-48.864-48.864 7.648-23.232c0.646-1.639 1.021-3.538 1.021-5.524 0-8.536-6.92-15.456-15.456-15.456-7.086 0-13.058 4.768-14.883 11.271l-0.026 0.109-41.792 126.88c-0.486 1.435-0.766 3.088-0.766 4.807 0 8.536 6.92 15.456 15.456 15.456 1.799 0 3.525-0.307 5.131-0.872l-0.108 0.033 125.504-43.232c6.106-2.158 10.402-7.88 10.402-14.606 0-1.794-0.306-3.516-0.867-5.118l0.033 0.108zM537.28 388.416v-26.336c-2.369 13.193-8.679 24.624-17.649 33.329l-70.095 70.063c10.335-7.050 23.082-11.285 36.813-11.36h117.779c-0.134 0.001-0.293 0.002-0.451 0.002-36.418 0-65.986-29.333-66.364-65.662v-0.036zM681.472 247.616h-56.64c-8.737 0.242-15.758 7.263-16 15.977v119.575c0.35 8.33 7.187 14.95 15.571 14.95 0.151 0 0.301-0.002 0.451-0.006h40.714c25.145-0.145 45.473-20.562 45.473-45.727 0-0.090 0-0.18-0.001-0.271v0.014c-0.017-6.98-1.62-13.582-4.469-19.468l0.117 0.268c12.378-8.563 20.384-22.684 20.384-38.674 0-0.039 0-0.077 0-0.116v0.006c0.001-0.135 0.002-0.294 0.002-0.453 0-25.267-20.294-45.794-45.471-46.171h-0.035z" />
<glyph unicode="&#xe90f;" d="M378.176 325.6l27.232 27.232-40.8 14.048z" />
<glyph unicode="&#xe910;" glyph-name="icon-setting" d="M1006.271 335.788l-96.643 73.602c1.337 11.54 2.116 24.943 2.144 38.521v0.040c-0.048 13.675-0.872 27.103-2.431 40.306l0.158-1.649 96.739 73.602c10.768 8.373 17.63 21.33 17.63 35.889 0 8.439-2.305 16.339-6.32 23.106l0.115-0.21-100.355 169.477c-8.302 14.223-23.49 23.628-40.875 23.628-6.217 0-12.153-1.203-17.588-3.388l0.317 0.113-114.052-44.609c-19.751 14.115-42.232 27.043-65.959 37.69l-2.491 0.999-17.377 117.828c-3.476 22.342-22.577 39.24-45.626 39.24-0.284 0-0.567-0.003-0.85-0.008l0.043 0.001h-201.606c-0.278 0.006-0.606 0.009-0.934 0.009-22.91 0-41.91-16.742-45.432-38.659l-0.035-0.263-17.281-118.212c-26.204-11.754-48.646-24.676-69.616-39.538l1.262 0.849-114.34 44.801c-4.974 1.908-10.727 3.013-16.738 3.013-17.296 0-32.456-9.148-40.905-22.87l-0.119-0.208-100.643-169.605c-4.106-6.662-6.539-14.736-6.539-23.377 0-14.636 6.978-27.642 17.789-35.872l0.11-0.081 96.643-73.602c-1.449-11.595-2.277-25.013-2.277-38.625s0.827-27.031 2.434-40.209l-0.157 1.583-96.739-73.602c-10.755-8.374-17.608-21.323-17.608-35.872 0-8.446 2.309-16.352 6.33-23.123l-0.115 0.209 100.547-169.285c8.275-14.234 23.454-23.652 40.833-23.652 6.233 0 12.184 1.212 17.629 3.412l-0.316-0.113 114.052 44.577c19.737-14.084 42.206-27.011 65.91-37.68l2.509-1.010 17.345-117.764c3.447-22.356 22.549-39.274 45.603-39.274 0.314 0 0.628 0.003 0.941 0.009l-0.047-0.001h201.606c0.262-0.005 0.57-0.008 0.88-0.008 22.922 0 41.936 16.737 45.486 38.657l0.035 0.265 17.313 118.18c26.207 11.78 48.648 24.711 69.623 39.575l-1.269-0.853 114.34-44.801c5.098-2.016 11.002-3.189 17.18-3.2h0.005c0.114-0.001 0.248-0.002 0.383-0.002 17.046 0 31.946 9.192 40.012 22.889l0.118 0.217 100.931 170.245c3.785 6.473 6.020 14.251 6.020 22.552 0 14.605-6.919 27.594-17.659 35.867l-0.106 0.078zM512.016 277.323c-92.299 2.553-166.149 77.984-166.149 170.664 0 94.289 76.436 170.725 170.725 170.725s170.725-76.436 170.725-170.725c0-0.012 0-0.024 0-0.036v0.002c-1.417-94.562-78.406-170.674-173.171-170.674-0.727 0-1.452 0.004-2.176 0.013l0.11-0.001z" />
<glyph unicode="&#xe911;" glyph-name="icon-song-fill" d="M873.984 809.952c-92.661 92.696-220.689 150.032-362.109 150.032-282.77 0-512-229.23-512-512s229.23-512 512-512c141.42 0 269.449 57.336 362.108 150.031l0.001 0.001c92.704 92.604 150.050 220.589 150.050 361.968s-57.346 269.364-150.045 361.963l-0.005 0.005zM699.136 578.688c-7.055-13.897-21.242-23.254-37.614-23.254-6.854 0-13.324 1.64-19.041 4.548l0.239-0.11-67.2 33.632v-273.664c0-70.41-57.078-127.488-127.488-127.488s-127.488 57.078-127.488 127.488c0 70.398 57.060 127.47 127.454 127.488h43.394v214.24c0.049 23.203 18.87 41.993 42.080 41.993 6.821 0 13.263-1.623 18.961-4.504l-0.241 0.11 128-64c13.897-7.055 23.254-21.242 23.254-37.614 0-6.854-1.64-13.324-4.548-19.041l0.11 0.239z" />
<glyph unicode="&#xe912;" glyph-name="icon-song" horiz-adv-x="736" d="M676.384 308.768c33.008 53.517 54.411 117.434 59.16 185.936l0.072 1.296c0.182 3.591 0.285 7.797 0.285 12.027 0 43.113-10.764 83.711-29.75 119.255l0.664-1.362c-33.6 66.336-91.296 103.584-147.2 139.584-42.192 23.972-78.133 53.438-108.391 88.003l-0.409 0.477-4.992 6.4c-16.666 18.209-29.545 40.182-37.203 64.472l-0.333 1.224c-3.445 19.446-20.218 34.025-40.396 34.025-1.032 0-2.055-0.038-3.068-0.113l0.135 0.008c-20.995-1.023-37.673-18.125-38.016-39.199v-701.985c-34.761 20.304-76.528 32.292-121.096 32.292-0.504 0-1.007-0.002-1.51-0.005h0.077c-112.64 0-204.352-70.656-204.352-157.568s91.648-157.536 204.352-157.536 204.352 70.656 204.352 157.568v459.104c96.18-33.351 168.073-113.669 188.918-212.783l0.33-1.873c-5.296-8.165-10.488-15.178-16.064-21.859l0.288 0.355c-6.302-6.82-10.167-15.972-10.167-26.028 0-11.841 5.36-22.431 13.786-29.475l0.061-0.049c7.222-6.12 16.646-9.841 26.939-9.841 12.103 0 23.004 5.145 30.637 13.367l0.024 0.026c10.641 12.038 20.53 25.317 29.261 39.389l0.723 1.251c1.038 1.079 1.986 2.261 2.822 3.524l0.058 0.092z" />
<glyph unicode="&#xe913;" d="M1024 448c0-282.77-229.23-512-512-512s-512 229.23-512 512c0 282.77 229.23 512 512 512s512-229.23 512-512z" />
<glyph unicode="&#xe914;" d="M520.64 507.392v-28.8c-0.020-0.491-0.031-1.068-0.031-1.648 0-7.791 2.028-15.109 5.585-21.454l-0.114 0.222c4.538-7.819 12.861-12.999 22.396-13.024h0.004c10.769 0.63 20.269 5.586 26.873 13.139l0.039 0.045 95.616 95.392c9.724 9.737 15.737 23.182 15.737 38.032s-6.013 28.295-15.738 38.033l-95.487 95.487c-6.65 7.605-16.163 12.563-26.841 13.179l-0.103 0.005c-13.92 0-27.936-11.104-27.936-35.936v-26.272c-137.11-8.403-247.392-113.025-264.524-246.78l-0.148-1.412c-0.083-0.626-0.13-1.35-0.13-2.085 0-9.296 7.536-16.832 16.832-16.832 5.568 0 10.505 2.704 13.569 6.87l0.033 0.047c43.734 59.447 113.421 97.595 192.019 97.595 14.97 0 29.616-1.384 43.819-4.031l-1.469 0.228z" />
<glyph unicode="&#xe915;" d="M748.256 489.152c-1.839 0.751-3.972 1.187-6.208 1.187-5.567 0-10.503-2.703-13.567-6.868l-0.033-0.047c-43.733-59.462-113.429-97.621-192.037-97.621-14.894 0-29.469 1.37-43.604 3.991l1.466-0.226v28.8c0 24.8-14.048 35.936-27.936 35.936-10.78-0.625-20.292-5.582-26.906-13.139l-0.038-0.045-95.488-95.488c-9.716-9.741-15.724-23.185-15.724-38.032s6.008-28.291 15.725-38.033l95.487-95.487c6.65-7.605 16.163-12.563 26.841-13.179l0.103-0.005c13.92 0 27.936 11.104 27.936 35.936v26.272c137.071 8.487 247.286 113.13 264.365 246.879l0.147 1.409c0.084 0.631 0.132 1.36 0.132 2.101 0 7.074-4.364 13.129-10.546 15.619l-0.113 0.040z" />
<glyph unicode="&#xe916;" glyph-name="icon-transitions" horiz-adv-x="896" d="M471.776 554.208v-51.2c-0.040-0.929-0.062-2.020-0.062-3.115 0-13.769 3.582-26.702 9.864-37.917l-0.202 0.392c8.134-13.927 23.009-23.136 40.036-23.136 0.021 0 0.042 0 0.063 0h-0.003c19.193 1.111 36.133 9.915 47.933 23.347l0.067 0.077 170.24 169.6c17.317 17.257 28.031 41.129 28.031 67.504s-10.715 50.247-28.029 67.501l-170.147 169.315c-11.865 13.512-28.806 22.317-47.815 23.415l-0.185 0.009c-24.8 0-49.824-19.712-49.824-63.776v-46.592c-243.95-14.622-440.337-200.446-471.251-438.231l-0.269-2.537c-0.131-1.053-0.205-2.272-0.205-3.508 0-16.595 13.453-30.048 30.048-30.048 9.895 0 18.673 4.783 24.148 12.163l0.057 0.081c78.229 105.62 202.427 173.338 342.442 173.338 26.531 0 52.494-2.431 77.678-7.084l-2.616 0.401zM876.992 518.592c-3.255 1.312-7.029 2.074-10.982 2.074-9.893 0-18.672-4.771-24.162-12.138l-0.057-0.080c-78.23-105.603-202.419-173.31-342.421-173.31-26.538 0-52.508 2.433-77.699 7.087l2.616-0.401v51.2c0 44.032-25.024 63.776-49.824 63.776-19.192-1.115-36.131-9.918-47.933-23.347l-0.067-0.077-170.24-169.6c-17.317-17.257-28.031-41.129-28.031-67.504s10.715-50.247 28.029-67.501l170.243-169.603c11.867-13.509 28.807-22.313 47.815-23.415l0.185-0.009c24.8 0 49.824 19.712 49.824 63.776v46.624c243.963 14.606 440.366 200.435 471.282 438.23l0.27 2.538c0.155 1.144 0.244 2.467 0.244 3.81 0 12.623-7.825 23.418-18.89 27.799l-0.202 0.071z" />
<glyph unicode="&#xe917;" glyph-name="icon-video-fill" d="M873.984 809.952c-92.662 92.706-220.697 150.048-362.125 150.048-282.77 0-512-229.23-512-512s229.23-512 512-512c141.428 0 269.463 57.342 362.123 150.046l0.002 0.002c92.695 92.603 150.034 220.581 150.034 361.952s-57.339 269.349-150.030 361.948l-0.004 0.004zM665.984 414.816l-192.384-149.504c-7.042-5.487-16.014-8.798-25.76-8.798-23.212 0-42.038 18.78-42.112 41.975v299.015c0.037 23.212 18.863 42.015 42.080 42.015 9.761 0 18.746-3.324 25.885-8.901l-0.093 0.070 192.192-149.504c9.913-7.766 16.224-19.738 16.224-33.184s-6.311-25.418-16.133-33.115l-0.092-0.069z" />
<glyph unicode="&#xe918;" glyph-name="icon-video-off" d="M45.269-6.485c-11.578 11.581-18.738 27.578-18.738 45.248s7.161 33.667 18.739 45.248l91.861 91.861h-24.832c-0.077 0-0.169 0-0.26 0-61.573 0-111.55 49.649-112.081 111.097v374.919c0.507 61.564 50.532 111.275 112.167 111.275 0.061 0 0.123 0 0.184 0h468.342c0.127 0.001 0.278 0.001 0.428 0.001 41.334 0 77.458-22.306 96.992-55.537l0.287-0.528 181.419 181.419c11.581 11.578 27.578 18.738 45.248 18.738s33.667-7.161 45.248-18.739v0c11.578-11.581 18.738-27.578 18.738-45.248s-7.161-33.667-18.739-45.248l-257.322-257.322v-263.68c-0.555-61.503-50.542-111.147-112.124-111.147-0.077 0-0.153 0-0.229 0h-262.516l-182.357-182.357c-11.58-11.573-27.574-18.731-45.24-18.731-0.010 0-0.020 0-0.031 0h0.002c-17.645 0.016-33.617 7.171-45.184 18.731v0zM923.733 246.059l-174.933 100.011v257.963l173.909 100.053c5.441 3.541 11.8 6.232 18.614 7.698l0.372 0.067c4.653 1.154 9.995 1.816 15.492 1.816 36.734 0 66.562-29.568 66.982-66.203v-343.592c-0.026-12.286-3.349-23.791-9.132-33.683l0.172 0.318c-11.7-20.182-33.161-33.563-57.756-33.664h-0.014c-12.447 0.002-24.095 3.426-34.052 9.384l0.303-0.168z" />
<glyph unicode="&#xe919;" glyph-name="icon-video-on" d="M580.651 746.667h-468.352c-0.052 0-0.113 0-0.174 0-61.612 0-111.617-49.692-112.124-111.184v-374.704c0.507-61.54 50.513-111.232 112.124-111.232 0.061 0 0.123 0 0.184 0h468.342c0.052 0 0.113 0 0.174 0 61.612 0 111.617 49.692 112.124 111.184v374.704c-0.095 61.454-49.935 111.236-111.403 111.236-0.315 0-0.63-0.001-0.944-0.004h0.048zM941.525 685.355c-7.171-1.544-13.514-4.234-19.165-7.9l0.221 0.135-173.867-100.053v-257.92l174.933-100.053c9.635-5.769 21.256-9.181 33.674-9.181 24.613 0 46.095 13.402 57.547 33.306l0.171 0.322c5.568 9.585 8.871 21.085 8.917 33.352v343.522c-0.432 36.689-30.275 66.264-67.025 66.264-5.466 0-10.779-0.654-15.865-1.889l0.458 0.094z" />
<glyph unicode="&#xe91a;" glyph-name="icon-video" horiz-adv-x="687" d="M124.576 937.408c-68.8 52.96-124.576 9.6-124.576-96.8v-785.12c0-106.496 55.776-149.824 124.544-96.928l511.36 393.44c31.282 20.859 51.611 56 51.611 95.888s-20.329 75.029-51.192 95.625l-0.419 0.263z" />
</font>
</defs>
</svg>
