<svg xmlns="http://www.w3.org/2000/svg" xmlns:xlink="http://www.w3.org/1999/xlink" width="68" height="68" viewBox="0 0 68 68"><defs><style>.a{fill:#00a1ed;}.b{fill:#fff;}.c,.d{fill:none;stroke-width:4px;}.c{stroke:#fff;}.d{stroke:#00a1ed;}.e{filter:url(#a);}</style><filter id="a" x="0" y="0" width="68" height="68" filterUnits="userSpaceOnUse"><feOffset dy="3" input="SourceAlpha"/><feGaussianBlur stdDeviation="3" result="b"/><feFlood flood-opacity="0.502"/><feComposite operator="in" in2="b"/><feComposite in="SourceGraphic"/></filter></defs><g transform="translate(-1608.356 -314)"><g transform="translate(1617.537 320.481)"><g transform="translate(0 0)"><g class="e" transform="matrix(1, 0, 0, 1, -9.18, -6.48)"><circle class="a" cx="25" cy="25" r="25" transform="translate(9 6)"/></g><g transform="translate(6.925 9.763)"><path class="b" d="M28.081,18.579,17.74,27.195a1.227,1.227,0,0,1-.786.285h-3.23A1.224,1.224,0,0,0,12.5,28.7h0v7.35a1.224,1.224,0,0,0,1.224,1.224h3.23a1.227,1.227,0,0,1,.786.285l10.341,8.608A2.451,2.451,0,0,0,32.1,44.3V20.462a2.451,2.451,0,0,0-4.02-1.883Z" transform="translate(-12.5 -18.012)"/><path class="b" d="M63.131,20.93a1.229,1.229,0,0,0-1.523,1.194h0a1.2,1.2,0,0,0,.876,1.172,11.007,11.007,0,0,1,0,21.334,1.2,1.2,0,0,0-.876,1.171A1.228,1.228,0,0,0,63.131,47a13.474,13.474,0,0,0,0-26.072Z" transform="translate(-39.552 -19.599)"/><path class="b" d="M62.277,45.861a1.2,1.2,0,0,0-.685,1.1,1.238,1.238,0,0,0,1.752,1.123,8.567,8.567,0,0,0,0-15.562,1.239,1.239,0,0,0-1.752,1.123,1.2,1.2,0,0,0,.685,1.1,6.079,6.079,0,0,1,0,11.1Z" transform="translate(-39.543 -25.944)"/></g></g></g><line class="c" y1="28" x2="28" transform="translate(1628.415 329.836)"/><line class="d" y1="28" x2="28" transform="translate(1629.415 331)"/><line class="c" y1="28" x2="28" transform="translate(1628.415 329.836)"/></g></svg>