<svg xmlns="http://www.w3.org/2000/svg" xmlns:xlink="http://www.w3.org/1999/xlink" width="72.067" height="72.067" viewBox="0 0 72.067 72.067"><defs><style>.a{fill:#f2a11f;}.b{filter:url(#a);}</style><filter id="a" x="0" y="0" width="72.067" height="72.067" filterUnits="userSpaceOnUse"><feOffset dy="3" input="SourceAlpha"/><feGaussianBlur stdDeviation="3" result="b"/><feFlood flood-opacity="0.502"/><feComposite operator="in" in2="b"/><feComposite in="SourceGraphic"/></filter></defs><g class="b" transform="matrix(1, 0, 0, 1, 0, 0)"><path class="a" d="M1200.672,340.5l5.633,6.012,7.884-2.39,1.873,8.023,8.022,1.872-2.39,7.884,6.013,5.633-6.013,5.633,2.39,7.884-8.022,1.872-1.873,8.023-7.884-2.391-5.633,6.012-5.634-6.012-7.883,2.391-1.873-8.023-8.023-1.872,2.392-7.884-6.013-5.633,6.013-5.633-2.392-7.884,8.023-1.872,1.873-8.023,7.883,2.39Z" transform="translate(-1164.64 -334.5)"/></g></svg>