<svg xmlns="http://www.w3.org/2000/svg" xmlns:xlink="http://www.w3.org/1999/xlink" width="68" height="68" viewBox="0 0 68 68"><defs fill="#45a2ed"><style>.a{fill:#ffffff;}.b{fill:#45a2ed;}.c{fill:none;stroke:#45a2ed;stroke-width:4px;}.d{filter:url(#a);}</style><filter id="a" x="0" y="0" width="68" height="68" filterUnits="userSpaceOnUse" fill="#45a2ed"><feOffset dy="3" input="SourceAlpha" fill="#45a2ed"/><feGaussianBlur stdDeviation="3" result="b" fill="#45a2ed"/><feFlood flood-opacity="0.161" fill="#45a2ed"/><feComposite operator="in" in2="b" fill="#45a2ed"/><feComposite in="SourceGraphic" fill="#45a2ed"/></filter></defs><g transform="translate(-1641 -374)"><g class="d" transform="matrix(1, 0, 0, 1, 1641, 374)"><circle class="a" cx="25" cy="25" r="25" transform="translate(9 6)" fill="#45a2ed"/></g><g transform="translate(1639.905 372.905)"><path class="b" d="M59.827,28.45a13.493,13.493,0,0,0-4.493-3.162,5.1,5.1,0,0,0-.9-.259.142.142,0,0,0-.058-.019A.029.029,0,0,0,54.356,25a.017.017,0,0,0-.028,0c-.01-.01-.01,0-.01,0-.115-.019-.23-.039-.345-.048-.153-.01-.306-.019-.46-.019-.134,0-.258.009-.393.019a4.374,4.374,0,0,0-2.548,1.13,3.475,3.475,0,0,0-.374.374,4.723,4.723,0,0,0-.852,1.3,4.078,4.078,0,0,0-2.146.048,5.49,5.49,0,0,0-.92.373,4.847,4.847,0,0,0-.814.575,3.905,3.905,0,0,0-.3.278,5.563,5.563,0,0,0-.537.632c-.076.115-.153.23-.22.345a4.825,4.825,0,0,0-.489,1.14c-.038.125-.067.269-.1.4a3.381,3.381,0,0,0-.441.009l-.249.029c-.1.01-.2.029-.3.048a2.805,2.805,0,0,0-.278.067c-.115.038-.23.077-.355.125a1.063,1.063,0,0,0-.153.067,4.386,4.386,0,0,0-.824.479c-.1.076-.2.162-.3.239a5.1,5.1,0,0,0-.383.393c-.01.01-.019.029-.029.038-.1.134-.211.278-.306.422L39,32.071l-.805-.92-1.715-1.983-.8-.92-2.846-3.286a3.544,3.544,0,0,0-3.2-1.149l5.26-3.794-6.831-.163L25.788,13.8l-2.28,6.055-6.822.163L22.1,23.928l-1.945,6.16,4.714-3.047a3.745,3.745,0,0,0-.163,3.171,5.231,5.231,0,0,0,.355.7,6.482,6.482,0,0,0,.507.67L28.719,35.2l.8.929,1.725,1.974.8.919L37.926,45.8c-3.085-1-7.482-.843-10.012,1.351-.095.086-.182.162-.268.249a3.37,3.37,0,0,0-.249.258c.01.01,0,.01-.009.019-.154.183-.288.365-.422.556a4.34,4.34,0,0,0-.479.968c-.038.115-.077.23-.1.345a3.248,3.248,0,0,0,.737,3.037,5.869,5.869,0,0,0,3.373,1.695c.431.067.862.154,1.283.259.163.038.326.067.489.1a9.944,9.944,0,0,1,1.562.46c.613.249,1.188.537,1.762.815s1.14.546,1.734.766a6.686,6.686,0,0,0,.767.23,23.8,23.8,0,0,1-3,.182A25,25,0,1,1,59.827,28.45Z" fill="#45a2ed"/><path class="b" d="M60.085,32.33A24.99,24.99,0,0,1,43.751,55.553c-1.686-.278-3.372-.451-4.781-.709a25.824,25.824,0,0,1-4.349-1.725,8.757,8.757,0,0,0-1.437-.441c-.575-.114-1.14-.229-1.7-.364a5.524,5.524,0,0,1-2.74-1.207c-.69-.795.01-1.935.709-2.539,2.836-2.462,8.258-.843,11.276.374a1.2,1.2,0,0,0,1.246-.153,1.078,1.078,0,0,0,.182-1.466L27.225,30.145a2.07,2.07,0,0,1-.067-2.816,1.568,1.568,0,0,1,.277-.288,3.551,3.551,0,0,1,2.721-.919,1.165,1.165,0,0,1,.681.383L42.295,39.678a1.127,1.127,0,0,0,1.609.278c.882-.757.259-1.447-.306-2.031-.24-.24-.2-.307-.479-.527-.911-.968-1.658-2.252-.537-3.238,1.14-.987,1.887-.729,2.453-.154l.038.039.038.048c.6.689,1.006,1.216,1.61,1.916.383.431.862,1.168,1.466.641a1.028,1.028,0,0,0,.22-1.427,8.888,8.888,0,0,0-1.284-1.475c-.939-1.025-1.782-2.127-.383-3.344,1.485-1.293,2.52-.278,3.468.814.259.307.45.6.68.863.527.613,1.207,1.293,2.117.689.02-.019.039-.028.058-.047.738-.642-1.178-2.913-1.772-3.593a2.306,2.306,0,0,1,.641-1.562c1.093-.948,3.306.23,4.225.93A24.784,24.784,0,0,1,60.085,32.33Z" fill="#45a2ed"/><path class="a" d="M31.411,30.088l-4.253-2.759a1.568,1.568,0,0,1,.277-.288,3.551,3.551,0,0,1,2.721-.919Z" fill="#45a2ed"/><path class="b" d="M42.055,31.9a4.386,4.386,0,0,0-.824.479A3.516,3.516,0,0,1,42.055,31.9Z" fill="#45a2ed"/><path class="b" d="M55.334,25.288a5.043,5.043,0,0,0-1.821-.354A4.308,4.308,0,0,1,55.334,25.288Z" fill="#45a2ed"/><path class="b" d="M33.826,55.1c-.518-.172-1.035-.325-1.562-.46A9.944,9.944,0,0,1,33.826,55.1Z" fill="#45a2ed"/><path class="b" d="M60.085,32.33A24.99,24.99,0,0,1,43.751,55.553c-1.686-.278-3.372-.451-4.781-.709a25.824,25.824,0,0,1-4.349-1.725,8.757,8.757,0,0,0-1.437-.441c-.575-.114-1.14-.229-1.7-.364a5.524,5.524,0,0,1-2.74-1.207c-.69-.795.01-1.935.709-2.539,2.836-2.462,8.258-.843,11.276.374a1.2,1.2,0,0,0,1.246-.153,1.078,1.078,0,0,0,.182-1.466L27.225,30.145a2.07,2.07,0,0,1-.067-2.816,1.568,1.568,0,0,1,.277-.288,3.551,3.551,0,0,1,2.721-.919,1.165,1.165,0,0,1,.681.383L42.295,39.678a1.127,1.127,0,0,0,1.609.278c.882-.757.259-1.447-.306-2.031-.24-.24-.2-.307-.479-.527-.911-.968-1.658-2.252-.537-3.238,1.14-.987,1.887-.729,2.453-.154l.038.039.038.048c.6.689,1.006,1.216,1.61,1.916.383.431.862,1.168,1.466.641a1.028,1.028,0,0,0,.22-1.427,8.888,8.888,0,0,0-1.284-1.475c-.939-1.025-1.782-2.127-.383-3.344,1.485-1.293,2.52-.278,3.468.814.259.307.45.6.68.863.527.613,1.207,1.293,2.117.689.02-.019.039-.028.058-.047.738-.642-1.178-2.913-1.772-3.593a2.306,2.306,0,0,1,.641-1.562c1.093-.948,3.306.23,4.225.93A24.784,24.784,0,0,1,60.085,32.33Z" fill="#45a2ed"/><path class="a" d="M43.751,55.553c-.316.124-.642.229-.968.335-.364.124-.737.23-1.111.326a8.3,8.3,0,0,1-.843.21,12.943,12.943,0,0,1-1.351.278h-.01a13.636,13.636,0,0,1-1.379.211,6.686,6.686,0,0,1-.767-.23c-.594-.22-1.159-.489-1.734-.766s-1.149-.566-1.762-.815a9.944,9.944,0,0,0-1.562-.46c-.163-.038-.326-.067-.489-.1-.421-.1-.852-.192-1.283-.259a5.869,5.869,0,0,1-3.373-1.695,3.248,3.248,0,0,1-.737-3.037c.028-.115.067-.23.1-.345a4.34,4.34,0,0,1,.479-.968c.134-.191.268-.373.422-.556.009-.009.019-.009.009-.019a3.37,3.37,0,0,1,.249-.258c.086-.087.173-.163.268-.249,2.53-2.194,6.927-2.348,10.012-1.351L25.567,31.582a6.482,6.482,0,0,1-.507-.67,5.231,5.231,0,0,1-.355-.7,3.745,3.745,0,0,1,.163-3.171l.92-.594.019.01.4.259.134.1.4.259.412.259a2.07,2.07,0,0,0,.067,2.816L42.161,47.323a1.078,1.078,0,0,1-.182,1.466,1.2,1.2,0,0,1-1.246.153c-3.018-1.217-8.44-2.836-11.276-.374-.7.6-1.4,1.744-.709,2.539a5.524,5.524,0,0,0,2.74,1.207c.556.135,1.121.25,1.7.364a8.757,8.757,0,0,1,1.437.441,25.824,25.824,0,0,0,4.349,1.725C40.379,55.1,42.065,55.275,43.751,55.553Z" fill="#45a2ed"/><path class="a" d="M60.1,32.09a1.927,1.927,0,0,1-.01.24A24.784,24.784,0,0,0,56.157,28.5c-.919-.7-3.132-1.878-4.225-.93a2.306,2.306,0,0,0-.641,1.562c.594.68,2.51,2.951,1.772,3.593-.019.019-.038.028-.058.047-.91.6-1.59-.076-2.117-.689-.23-.259-.421-.556-.68-.863-.948-1.092-1.983-2.107-3.468-.814-1.4,1.217-.556,2.319.383,3.344a8.888,8.888,0,0,1,1.284,1.475,1.028,1.028,0,0,1-.22,1.427c-.6.527-1.083-.21-1.466-.641-.6-.7-1.006-1.227-1.61-1.916l-.038-.048-.038-.039c-.566-.575-1.313-.833-2.453.154-1.121.986-.374,2.27.537,3.238.277.22.239.287.479.527.565.584,1.188,1.274.306,2.031a1.127,1.127,0,0,1-1.609-.278L30.837,26.5a1.165,1.165,0,0,0-.681-.383l-.163-.527a1.717,1.717,0,0,1,1.208.6L42.649,39.371c.182.2.613.518.939.221a.635.635,0,0,0,.278-.412c.009-.278-.364-.661-.613-.92a2.28,2.28,0,0,1-.24-.287.967.967,0,0,0-.2-.211l-.038-.039a3.6,3.6,0,0,1-1.236-2.51,1.986,1.986,0,0,1,.728-1.408c1.15-1.006,2.194-1.054,3.1-.144a.483.483,0,0,1,.086.1l.01.019c.306.355.565.661.814.968l.805.958c.048.048.086.1.134.153.134.163.4.489.536.5.02,0,.058-.009.125-.067a.563.563,0,0,0,.115-.824,6.088,6.088,0,0,0-.881-1.044c-.125-.115-.24-.239-.345-.345a3.612,3.612,0,0,1-1.246-2.423,2.345,2.345,0,0,1,.91-1.61c1.926-1.677,3.363-.029,4.13.862.153.173.277.336.392.489a4.174,4.174,0,0,0,.288.373c.68.776,1.025.92,1.5.6.057-.153-.134-1-1.811-2.922l-.134-.153.01-.2a2.687,2.687,0,0,1,.814-1.888,2.638,2.638,0,0,1,2.635-.249,7.826,7.826,0,0,1,2.184,1.169,25.505,25.505,0,0,1,3.64,3.458C60.1,31.745,60.1,31.918,60.1,32.09Z" fill="#45a2ed"/><path class="a" d="M60.057,30.73l-2.855-3.3L56.1,26.17l-.766-.882a13.493,13.493,0,0,1,4.493,3.162c.048.258.076.517.1.776s.058.5.077.757S60.047,30.481,60.057,30.73Z" fill="#45a2ed"/><path class="a" d="M25.567,31.582a6.482,6.482,0,0,1-.507-.67,4.431,4.431,0,0,0,.5.67L37.926,45.8Zm-.862-1.37a3.66,3.66,0,0,0,.355.7A5.231,5.231,0,0,1,24.7,30.212Z" fill="#45a2ed"/><path class="c" d="M22.64,46.065" fill="#45a2ed"/><rect width="37.936" height="3.832" transform="translate(21.19 44.457) rotate(-45)" fill="#45a2ed"/><rect class="a" width="37.936" height="3.832" transform="translate(20.328 43.595) rotate(-45)" fill="#45a2ed"/></g></g></svg>