<svg version="1.2" baseProfile="tiny-ps" xmlns="http://www.w3.org/2000/svg" viewBox="0 0 68 68" width="68" height="68">
	<title>touch-off-small-svg</title>
	<style>
		tspan { white-space:pre }
		.shp0 { fill: #ffffff } 
		.shp1 { fill: #0b0b0b } 
		.shp2 { fill: none;stroke: #000000;stroke-width: 4 } 
	</style>
	<g id="Layer">
		<g id="Layer">
			<path id="Layer" class="shp0" d="M34 56C20.17 56 9 44.83 9 31C9 17.17 20.17 6 34 6C47.83 6 59 17.17 59 31C59 44.83 47.83 56 34 56Z" />
		</g>
		<g id="Layer">
			<path id="Layer" class="shp1" d="M58.73 27.35C58.42 27.02 58.08 26.7 57.74 26.4C57.39 26.09 57.03 25.81 56.65 25.54C56.27 25.28 55.88 25.03 55.48 24.81C55.08 24.58 54.66 24.38 54.24 24.19C54.17 24.16 54.09 24.14 54.02 24.11C53.94 24.09 53.87 24.06 53.79 24.04C53.72 24.02 53.64 24 53.57 23.98C53.49 23.97 53.42 23.95 53.34 23.93C53.33 23.93 53.33 23.93 53.33 23.93C53.32 23.92 53.32 23.92 53.31 23.92C53.31 23.92 53.3 23.92 53.3 23.92C53.29 23.92 53.29 23.92 53.28 23.91C53.28 23.91 53.28 23.91 53.28 23.91C53.28 23.91 53.27 23.91 53.27 23.91C53.27 23.91 53.27 23.91 53.27 23.91C53.26 23.91 53.26 23.91 53.26 23.9C53.26 23.9 53.26 23.9 53.25 23.9C53.25 23.9 53.25 23.9 53.25 23.9C53.24 23.9 53.24 23.9 53.24 23.9C53.24 23.9 53.23 23.9 53.23 23.9C53.22 23.89 53.22 23.9 53.22 23.9C53.11 23.89 52.99 23.87 52.88 23.86C52.72 23.85 52.57 23.84 52.42 23.84C52.28 23.84 52.16 23.85 52.02 23.86C51.79 23.88 51.56 23.92 51.33 23.98C51.1 24.04 50.87 24.12 50.66 24.21C50.44 24.31 50.23 24.42 50.04 24.55C49.84 24.68 49.65 24.83 49.48 24.99C49.44 25.02 49.41 25.05 49.38 25.08C49.35 25.11 49.31 25.14 49.28 25.17C49.25 25.2 49.22 25.23 49.19 25.26C49.16 25.29 49.13 25.33 49.1 25.36C49.01 25.46 48.93 25.56 48.85 25.66C48.77 25.76 48.69 25.87 48.62 25.98C48.55 26.08 48.49 26.2 48.42 26.31C48.36 26.43 48.3 26.54 48.25 26.66C48.08 26.62 47.9 26.59 47.72 26.57C47.54 26.55 47.36 26.54 47.17 26.54C46.99 26.55 46.81 26.56 46.63 26.59C46.46 26.62 46.28 26.66 46.1 26.71C46.03 26.73 45.95 26.76 45.87 26.79C45.79 26.81 45.71 26.84 45.64 26.87C45.56 26.91 45.48 26.94 45.41 26.97C45.33 27.01 45.26 27.04 45.18 27.08C45.11 27.12 45.04 27.17 44.97 27.21C44.9 27.25 44.83 27.3 44.76 27.35C44.7 27.4 44.63 27.45 44.56 27.5C44.5 27.55 44.43 27.6 44.37 27.66C44.34 27.68 44.32 27.7 44.29 27.72C44.27 27.75 44.24 27.77 44.22 27.79C44.19 27.82 44.17 27.84 44.14 27.86C44.12 27.89 44.09 27.91 44.07 27.93C44.02 27.98 43.97 28.03 43.93 28.09C43.88 28.14 43.84 28.19 43.79 28.24C43.75 28.29 43.7 28.35 43.66 28.4C43.62 28.46 43.57 28.51 43.53 28.57C43.46 28.68 43.38 28.8 43.31 28.91C43.26 29 43.21 29.09 43.16 29.18C43.12 29.28 43.07 29.37 43.03 29.47C42.99 29.56 42.95 29.66 42.92 29.76C42.88 29.85 42.85 29.95 42.82 30.05C42.79 30.18 42.76 30.32 42.72 30.45C42.69 30.45 42.65 30.45 42.61 30.45C42.58 30.45 42.54 30.45 42.5 30.45C42.47 30.45 42.43 30.45 42.39 30.45C42.36 30.46 42.32 30.46 42.28 30.46L42.03 30.49C41.93 30.5 41.83 30.52 41.73 30.54C41.71 30.54 41.69 30.55 41.66 30.55C41.64 30.56 41.62 30.56 41.6 30.57C41.57 30.57 41.55 30.58 41.53 30.59C41.5 30.59 41.48 30.6 41.46 30.6C41.34 30.64 41.23 30.68 41.1 30.73C41.09 30.73 41.08 30.74 41.06 30.74C41.05 30.75 41.04 30.75 41.02 30.76C41.01 30.77 41 30.77 40.99 30.78C40.97 30.78 40.96 30.79 40.95 30.8C40.88 30.83 40.8 30.86 40.73 30.9C40.66 30.94 40.59 30.97 40.52 31.01C40.46 31.05 40.39 31.1 40.32 31.14C40.25 31.18 40.19 31.23 40.12 31.28C40.02 31.35 39.92 31.44 39.82 31.51C39.79 31.55 39.76 31.58 39.73 31.61C39.69 31.64 39.66 31.67 39.63 31.71C39.6 31.74 39.56 31.77 39.53 31.81C39.5 31.84 39.47 31.87 39.44 31.91C39.43 31.92 39.42 31.94 39.41 31.95C39.31 32.08 39.2 32.22 39.11 32.37L37.9 30.98L37.1 30.06L35.38 28.07L34.58 27.15L31.74 23.87C31.54 23.65 31.32 23.45 31.07 23.28C30.83 23.12 30.56 22.98 30.29 22.88C30.01 22.78 29.72 22.72 29.42 22.69C29.13 22.66 28.83 22.67 28.54 22.72L33.8 18.92L26.97 18.76L24.69 12.7L22.41 18.76L15.59 18.92L21 22.83L19.06 28.99L23.77 25.95C23.65 26.19 23.54 26.44 23.47 26.71C23.4 26.97 23.35 27.24 23.34 27.51C23.33 27.79 23.34 28.06 23.39 28.33C23.43 28.6 23.51 28.86 23.61 29.12C23.64 29.18 23.66 29.24 23.69 29.3C23.72 29.36 23.75 29.42 23.78 29.47C23.8 29.53 23.84 29.59 23.87 29.65C23.9 29.7 23.93 29.76 23.97 29.82C24 29.88 24.04 29.93 24.08 29.99C24.12 30.05 24.17 30.1 24.21 30.16C24.25 30.22 24.29 30.27 24.34 30.33C24.38 30.38 24.43 30.43 24.47 30.49L27.62 34.1L28.42 35.03L30.15 37.01L30.95 37.93L36.83 44.7C33.75 43.7 29.35 43.86 26.82 46.06C26.72 46.14 26.64 46.22 26.55 46.3C26.53 46.33 26.51 46.35 26.49 46.37C26.46 46.39 26.44 46.41 26.42 46.43C26.4 46.45 26.38 46.47 26.36 46.5C26.34 46.52 26.32 46.54 26.3 46.56C26.31 46.57 26.3 46.57 26.29 46.58C26.14 46.76 26 46.95 25.87 47.14C25.82 47.21 25.77 47.29 25.73 47.37C25.68 47.45 25.64 47.53 25.6 47.61C25.56 47.69 25.52 47.77 25.49 47.85C25.45 47.94 25.42 48.02 25.39 48.11C25.35 48.22 25.31 48.34 25.29 48.45C25.22 48.71 25.18 48.98 25.18 49.26C25.18 49.53 25.21 49.8 25.27 50.06C25.34 50.33 25.43 50.58 25.56 50.82C25.69 51.06 25.85 51.29 26.03 51.49C26.25 51.72 26.5 51.93 26.76 52.11C27.02 52.3 27.29 52.47 27.58 52.61C27.86 52.76 28.16 52.88 28.47 52.97C28.77 53.07 29.08 53.14 29.4 53.18C29.83 53.25 30.26 53.34 30.68 53.44C30.85 53.48 31.01 53.51 31.17 53.54C31.31 53.57 31.44 53.6 31.57 53.63C31.7 53.67 31.83 53.7 31.96 53.74C32.09 53.78 32.22 53.82 32.35 53.86C32.48 53.91 32.61 53.95 32.74 54C33.35 54.25 33.92 54.54 34.5 54.82C35.07 55.09 35.64 55.36 36.23 55.58C36.29 55.61 36.36 55.63 36.42 55.65C36.48 55.67 36.55 55.69 36.61 55.71C36.68 55.73 36.74 55.75 36.8 55.76C36.87 55.78 36.93 55.8 37 55.81C36.75 55.84 36.5 55.87 36.25 55.89C36 55.92 35.75 55.94 35.5 55.95C35.25 55.97 35 55.98 34.75 55.99C34.5 55.99 34.25 56 34 55.99C24.22 56 15.34 50.29 11.27 41.4C7.2 32.51 8.69 22.06 15.08 14.66C21.47 7.25 31.59 4.26 40.98 6.99C50.37 9.72 57.31 17.68 58.73 27.35L58.73 27.35Z" />
			<path id="Layer" class="shp1" d="M58.99 31.23C58.97 33.76 58.56 36.26 57.79 38.66C57.02 41.06 55.89 43.33 54.44 45.39C52.99 47.45 51.24 49.28 49.24 50.82C47.24 52.36 45.02 53.58 42.66 54.46C40.97 54.18 39.28 54.01 37.87 53.75C37.5 53.64 37.13 53.52 36.76 53.39C36.39 53.26 36.02 53.13 35.66 52.99C35.3 52.84 34.94 52.69 34.58 52.53C34.23 52.37 33.87 52.2 33.53 52.02C33.41 51.98 33.29 51.93 33.17 51.89C33.06 51.85 32.94 51.81 32.82 51.77C32.7 51.74 32.58 51.7 32.46 51.67C32.33 51.64 32.21 51.61 32.09 51.58C31.51 51.47 30.95 51.35 30.39 51.22C30.14 51.18 29.89 51.13 29.65 51.06C29.41 50.99 29.17 50.91 28.94 50.8C28.7 50.7 28.48 50.59 28.27 50.45C28.05 50.32 27.84 50.17 27.65 50.01C26.96 49.22 27.66 48.08 28.36 47.47C31.19 45.01 36.62 46.63 39.63 47.85C39.73 47.89 39.84 47.92 39.95 47.94C40.06 47.96 40.17 47.96 40.28 47.95C40.39 47.93 40.5 47.9 40.6 47.86C40.7 47.82 40.79 47.76 40.88 47.69C40.98 47.61 41.07 47.5 41.14 47.38C41.2 47.26 41.24 47.13 41.26 47C41.28 46.86 41.27 46.73 41.24 46.59C41.2 46.46 41.14 46.34 41.06 46.23L26.13 29.05C25.95 28.86 25.81 28.65 25.7 28.41C25.6 28.17 25.55 27.91 25.54 27.66C25.54 27.4 25.58 27.14 25.67 26.9C25.76 26.65 25.89 26.43 26.06 26.23C26.08 26.21 26.1 26.18 26.13 26.16C26.15 26.13 26.17 26.11 26.19 26.08C26.22 26.06 26.24 26.03 26.26 26.01C26.29 25.99 26.31 25.97 26.34 25.95C26.52 25.78 26.72 25.63 26.93 25.51C27.15 25.38 27.37 25.28 27.6 25.2C27.84 25.12 28.08 25.07 28.32 25.04C28.57 25.01 28.82 25 29.06 25.03C29.13 25.04 29.19 25.06 29.25 25.08C29.32 25.1 29.38 25.13 29.43 25.16C29.49 25.19 29.55 25.23 29.6 25.27C29.65 25.31 29.7 25.36 29.74 25.41L41.2 38.58C41.28 38.71 41.39 38.82 41.52 38.9C41.65 38.98 41.79 39.04 41.94 39.07C42.1 39.09 42.25 39.09 42.4 39.05C42.55 39.02 42.69 38.95 42.81 38.86C43.69 38.1 43.07 37.41 42.5 36.83C42.26 36.59 42.3 36.52 42.02 36.3C41.11 35.33 40.37 34.05 41.49 33.06C42.63 32.08 43.37 32.34 43.94 32.91L43.98 32.95L44.02 33C44.62 33.69 45.02 34.21 45.63 34.91C46.01 35.34 46.49 36.08 47.09 35.55C47.2 35.48 47.29 35.38 47.36 35.26C47.43 35.15 47.47 35.02 47.49 34.89C47.52 34.75 47.51 34.62 47.48 34.49C47.45 34.36 47.39 34.24 47.31 34.13C47.22 33.99 47.12 33.86 47.02 33.73C46.92 33.6 46.82 33.48 46.71 33.36C46.6 33.23 46.49 33.11 46.38 32.99C46.27 32.88 46.15 32.76 46.03 32.65C45.09 31.63 44.25 30.53 45.64 29.31C47.13 28.02 48.16 29.03 49.11 30.12C49.37 30.43 49.56 30.72 49.79 30.99C50.32 31.6 51 32.28 51.91 31.67C51.93 31.66 51.95 31.65 51.97 31.63C52.71 30.99 50.79 28.71 50.2 28.03C50.2 27.89 50.21 27.75 50.24 27.61C50.27 27.46 50.31 27.33 50.37 27.19C50.42 27.06 50.49 26.93 50.57 26.81C50.65 26.69 50.74 26.58 50.84 26.47C51.93 25.52 54.14 26.7 55.06 27.4C55.42 27.68 55.78 27.98 56.12 28.28C56.47 28.58 56.8 28.89 57.13 29.21C57.46 29.53 57.78 29.86 58.09 30.2C58.4 30.53 58.7 30.88 58.99 31.23L58.99 31.23Z" />
			<path id="Layer" class="shp0" d="M30.32 28.99L26.06 26.23C26.08 26.21 26.1 26.18 26.13 26.16C26.15 26.13 26.17 26.11 26.19 26.08C26.22 26.06 26.24 26.03 26.26 26.01C26.29 25.99 26.31 25.97 26.34 25.95C26.52 25.78 26.72 25.63 26.93 25.51C27.15 25.38 27.37 25.28 27.6 25.2C27.84 25.12 28.08 25.07 28.32 25.04C28.57 25.01 28.82 25 29.06 25.03L30.32 28.99Z" />
			<path id="Layer" class="shp1" d="M40.96 30.8C40.89 30.84 40.82 30.87 40.74 30.91C40.67 30.94 40.6 30.98 40.53 31.02C40.47 31.06 40.4 31.1 40.33 31.15C40.27 31.19 40.2 31.24 40.14 31.28C40.2 31.23 40.26 31.19 40.33 31.14C40.4 31.1 40.46 31.06 40.53 31.02C40.6 30.98 40.67 30.94 40.74 30.9C40.81 30.87 40.89 30.84 40.96 30.8L40.96 30.8Z" />
			<path id="Layer" class="shp1" d="M54.24 24.19C54.09 24.14 53.95 24.09 53.8 24.04C53.65 24 53.5 23.96 53.34 23.93C53.19 23.9 53.04 23.88 52.88 23.86C52.73 23.85 52.57 23.84 52.42 23.84C52.57 23.84 52.73 23.84 52.89 23.85C53.04 23.87 53.19 23.89 53.35 23.92C53.5 23.95 53.65 23.98 53.8 24.03C53.95 24.08 54.1 24.13 54.24 24.19L54.24 24.19Z" />
			<path id="Layer" class="shp1" d="M32.73 54C32.21 53.83 31.7 53.68 31.17 53.54C31.3 53.57 31.43 53.6 31.57 53.64C31.7 53.67 31.83 53.7 31.96 53.74C32.09 53.78 32.22 53.82 32.35 53.87C32.48 53.91 32.6 53.96 32.73 54L32.73 54Z" />
			<path id="Layer" class="shp1" d="M58.99 31.23C58.97 33.76 58.56 36.26 57.79 38.66C57.02 41.06 55.89 43.33 54.44 45.39C52.99 47.45 51.24 49.28 49.24 50.82C47.24 52.36 45.02 53.58 42.66 54.46C40.97 54.18 39.28 54.01 37.87 53.75C37.5 53.64 37.13 53.52 36.76 53.39C36.39 53.26 36.02 53.13 35.66 52.99C35.3 52.84 34.94 52.69 34.58 52.53C34.23 52.37 33.87 52.2 33.53 52.02C33.41 51.98 33.29 51.93 33.17 51.89C33.06 51.85 32.94 51.81 32.82 51.77C32.7 51.74 32.58 51.7 32.46 51.67C32.33 51.64 32.21 51.61 32.09 51.58C31.51 51.47 30.95 51.35 30.39 51.22C30.14 51.18 29.89 51.13 29.65 51.06C29.41 50.99 29.17 50.91 28.94 50.8C28.7 50.7 28.48 50.59 28.27 50.45C28.05 50.32 27.84 50.17 27.65 50.01C26.96 49.22 27.66 48.08 28.36 47.47C31.19 45.01 36.62 46.63 39.63 47.85C39.73 47.89 39.84 47.92 39.95 47.94C40.06 47.96 40.17 47.96 40.28 47.95C40.39 47.93 40.5 47.9 40.6 47.86C40.7 47.82 40.79 47.76 40.88 47.69C40.98 47.61 41.07 47.5 41.14 47.38C41.2 47.26 41.24 47.13 41.26 47C41.28 46.86 41.27 46.73 41.24 46.59C41.2 46.46 41.14 46.34 41.06 46.23L26.13 29.05C25.95 28.86 25.81 28.65 25.7 28.41C25.6 28.17 25.55 27.91 25.54 27.66C25.54 27.4 25.58 27.14 25.67 26.9C25.76 26.65 25.89 26.43 26.06 26.23C26.08 26.21 26.1 26.18 26.13 26.16C26.15 26.13 26.17 26.11 26.19 26.08C26.22 26.06 26.24 26.03 26.26 26.01C26.29 25.99 26.31 25.97 26.34 25.95C26.52 25.78 26.72 25.63 26.93 25.51C27.15 25.38 27.37 25.28 27.6 25.2C27.84 25.12 28.08 25.07 28.32 25.04C28.57 25.01 28.82 25 29.06 25.03C29.13 25.04 29.19 25.06 29.25 25.08C29.32 25.1 29.38 25.13 29.43 25.16C29.49 25.19 29.55 25.23 29.6 25.27C29.65 25.31 29.7 25.36 29.74 25.41L41.2 38.58C41.28 38.71 41.39 38.82 41.52 38.9C41.65 38.98 41.79 39.04 41.94 39.07C42.1 39.09 42.25 39.09 42.4 39.05C42.55 39.02 42.69 38.95 42.81 38.86C43.69 38.1 43.07 37.41 42.5 36.83C42.26 36.59 42.3 36.52 42.02 36.3C41.11 35.33 40.37 34.05 41.49 33.06C42.63 32.08 43.37 32.34 43.94 32.91L43.98 32.95L44.02 33C44.62 33.69 45.02 34.21 45.63 34.91C46.01 35.34 46.49 36.08 47.09 35.55C47.2 35.48 47.29 35.38 47.36 35.26C47.43 35.15 47.47 35.02 47.49 34.89C47.52 34.75 47.51 34.62 47.48 34.49C47.45 34.36 47.39 34.24 47.31 34.13C47.22 33.99 47.12 33.86 47.02 33.73C46.92 33.6 46.82 33.48 46.71 33.36C46.6 33.23 46.49 33.11 46.38 32.99C46.27 32.88 46.15 32.76 46.03 32.65C45.09 31.63 44.25 30.53 45.64 29.31C47.13 28.02 48.16 29.03 49.11 30.12C49.37 30.43 49.56 30.72 49.79 30.99C50.32 31.6 51 32.28 51.91 31.67C51.93 31.66 51.95 31.65 51.97 31.63C52.71 30.99 50.79 28.71 50.2 28.03C50.2 27.89 50.21 27.75 50.24 27.61C50.27 27.46 50.31 27.33 50.37 27.19C50.42 27.06 50.49 26.93 50.57 26.81C50.65 26.69 50.74 26.58 50.84 26.47C51.93 25.52 54.14 26.7 55.06 27.4C55.42 27.68 55.78 27.98 56.12 28.28C56.47 28.58 56.8 28.89 57.13 29.21C57.46 29.53 57.78 29.86 58.09 30.2C58.4 30.53 58.7 30.88 58.99 31.23L58.99 31.23Z" />
			<path id="Layer" class="shp0" d="M42.66 54.46C42.34 54.58 42.01 54.69 41.69 54.79C41.32 54.92 40.95 55.02 40.58 55.12C40.51 55.14 40.44 55.16 40.37 55.18C40.3 55.2 40.23 55.22 40.16 55.24C40.09 55.25 40.02 55.27 39.95 55.28C39.88 55.3 39.81 55.32 39.73 55.33C39.62 55.36 39.51 55.39 39.4 55.41C39.29 55.44 39.17 55.46 39.06 55.49C38.95 55.51 38.84 55.53 38.72 55.55C38.61 55.57 38.5 55.59 38.38 55.61L38.37 55.61C38.26 55.63 38.14 55.65 38.03 55.67C37.92 55.69 37.8 55.71 37.69 55.73C37.57 55.75 37.46 55.76 37.34 55.78C37.23 55.79 37.11 55.81 36.99 55.82C36.93 55.8 36.86 55.79 36.8 55.77C36.74 55.75 36.67 55.73 36.61 55.71C36.54 55.7 36.48 55.68 36.42 55.65C36.35 55.63 36.29 55.61 36.23 55.59C35.63 55.37 35.07 55.1 34.49 54.82C33.92 54.54 33.34 54.26 32.73 54.01C32.6 53.96 32.48 53.91 32.35 53.87C32.22 53.82 32.09 53.78 31.96 53.74C31.83 53.71 31.7 53.67 31.57 53.64C31.43 53.6 31.3 53.57 31.17 53.55C31.01 53.51 30.84 53.48 30.68 53.45C30.26 53.35 29.83 53.25 29.4 53.19C29.08 53.14 28.77 53.07 28.46 52.98C28.15 52.88 27.86 52.76 27.57 52.62C27.28 52.48 27.01 52.31 26.75 52.12C26.49 51.93 26.25 51.72 26.02 51.49C25.84 51.29 25.68 51.07 25.56 50.83C25.43 50.59 25.33 50.33 25.27 50.07C25.2 49.8 25.17 49.53 25.17 49.26C25.18 48.99 25.22 48.72 25.29 48.46C25.31 48.34 25.35 48.23 25.39 48.11C25.42 48.03 25.45 47.94 25.48 47.86C25.52 47.78 25.56 47.69 25.6 47.61C25.64 47.53 25.68 47.45 25.72 47.37C25.77 47.3 25.82 47.22 25.87 47.14C26 46.95 26.13 46.77 26.29 46.59C26.3 46.58 26.31 46.58 26.3 46.57C26.32 46.55 26.34 46.52 26.36 46.5C26.38 46.48 26.4 46.46 26.42 46.44C26.44 46.41 26.46 46.39 26.48 46.37C26.5 46.35 26.52 46.33 26.55 46.31C26.63 46.22 26.72 46.15 26.81 46.06C29.34 43.87 33.74 43.71 36.83 44.71L24.47 30.49C24.43 30.43 24.38 30.38 24.34 30.33C24.29 30.27 24.25 30.22 24.21 30.16C24.17 30.1 24.12 30.05 24.08 29.99C24.04 29.93 24 29.88 23.96 29.82C23.93 29.76 23.9 29.7 23.87 29.65C23.83 29.59 23.8 29.53 23.77 29.47C23.74 29.42 23.72 29.36 23.69 29.3C23.66 29.24 23.64 29.18 23.61 29.12C23.51 28.86 23.43 28.6 23.39 28.33C23.34 28.06 23.32 27.79 23.34 27.51C23.35 27.24 23.4 26.97 23.47 26.71C23.54 26.44 23.64 26.19 23.77 25.95L24.69 25.35L24.71 25.36L25.11 25.62L25.25 25.72L25.65 25.98L26.06 26.24C25.89 26.43 25.75 26.66 25.66 26.9C25.57 27.14 25.53 27.4 25.54 27.66C25.54 27.92 25.6 28.17 25.7 28.41C25.8 28.65 25.94 28.87 26.12 29.05L41.07 46.23C41.15 46.34 41.21 46.46 41.24 46.59C41.27 46.73 41.28 46.86 41.27 47C41.25 47.13 41.21 47.26 41.14 47.38C41.08 47.5 40.99 47.61 40.88 47.69C40.8 47.76 40.7 47.82 40.6 47.86C40.5 47.9 40.39 47.93 40.28 47.95C40.17 47.96 40.06 47.96 39.95 47.94C39.84 47.92 39.74 47.89 39.64 47.85C36.62 46.63 31.2 45.01 28.36 47.47C27.66 48.07 26.96 49.22 27.65 50.01C27.85 50.17 28.05 50.32 28.27 50.45C28.48 50.59 28.71 50.7 28.94 50.8C29.17 50.91 29.41 50.99 29.65 51.06C29.9 51.13 30.14 51.18 30.39 51.22C30.95 51.35 31.51 51.47 32.09 51.58C32.22 51.61 32.34 51.64 32.46 51.67C32.58 51.7 32.7 51.74 32.82 51.77C32.94 51.81 33.06 51.85 33.18 51.89C33.3 51.93 33.41 51.98 33.53 52.02C33.88 52.2 34.23 52.37 34.59 52.53C34.94 52.69 35.3 52.84 35.67 52.99C36.03 53.13 36.39 53.26 36.76 53.39C37.13 53.52 37.5 53.64 37.88 53.75C39.28 54 40.97 54.18 42.66 54.46Z" />
			<path id="Layer" class="shp0" d="M59 30.99C59.01 31.02 59.01 31.04 59.01 31.06C59.01 31.08 59 31.1 59 31.12C59 31.14 59 31.16 59 31.18C59 31.2 59 31.22 58.99 31.23C58.7 30.88 58.4 30.53 58.09 30.2C57.78 29.86 57.46 29.53 57.13 29.21C56.81 28.89 56.47 28.58 56.12 28.28C55.78 27.98 55.42 27.69 55.06 27.4C54.14 26.7 51.93 25.53 50.84 26.47C50.74 26.58 50.65 26.69 50.57 26.81C50.49 26.93 50.42 27.06 50.37 27.2C50.31 27.33 50.27 27.47 50.24 27.61C50.21 27.75 50.2 27.89 50.2 28.04C50.79 28.72 52.71 30.99 51.97 31.63C51.95 31.65 51.93 31.66 51.91 31.68C51 32.28 50.32 31.6 49.79 30.99C49.56 30.73 49.37 30.43 49.11 30.12C48.16 29.03 47.13 28.02 45.64 29.31C44.24 30.53 45.09 31.63 46.03 32.65C46.15 32.77 46.27 32.88 46.38 33C46.49 33.11 46.6 33.23 46.71 33.36C46.82 33.48 46.92 33.61 47.02 33.74C47.12 33.86 47.22 34 47.31 34.13C47.39 34.24 47.45 34.36 47.48 34.49C47.51 34.62 47.52 34.76 47.49 34.89C47.47 35.02 47.43 35.15 47.36 35.26C47.29 35.38 47.2 35.48 47.09 35.56C46.49 36.08 46.01 35.35 45.63 34.92C45.03 34.22 44.62 33.69 44.02 33L43.98 32.95L43.94 32.91C43.37 32.34 42.63 32.08 41.49 33.07C40.37 34.05 41.11 35.34 42.02 36.3C42.3 36.52 42.26 36.59 42.5 36.83C43.07 37.42 43.69 38.11 42.81 38.86C42.69 38.95 42.55 39.02 42.4 39.05C42.25 39.09 42.1 39.09 41.94 39.07C41.79 39.04 41.65 38.99 41.52 38.9C41.39 38.82 41.28 38.71 41.2 38.58L29.74 25.4C29.7 25.35 29.65 25.31 29.6 25.27C29.55 25.22 29.49 25.19 29.43 25.15C29.38 25.12 29.32 25.09 29.25 25.07C29.19 25.05 29.13 25.03 29.06 25.02L28.9 24.49C29.01 24.5 29.13 24.52 29.24 24.55C29.35 24.58 29.46 24.62 29.56 24.67C29.67 24.72 29.77 24.78 29.86 24.86C29.95 24.93 30.03 25.01 30.11 25.09L41.55 38.28C41.74 38.48 42.17 38.79 42.49 38.5C42.53 38.47 42.56 38.45 42.59 38.42C42.62 38.39 42.65 38.35 42.67 38.32C42.7 38.28 42.72 38.25 42.73 38.21C42.75 38.17 42.76 38.13 42.77 38.08C42.78 37.81 42.41 37.42 42.16 37.16C42.14 37.14 42.11 37.12 42.09 37.1C42.07 37.07 42.05 37.05 42.03 37.03C42.01 37 41.99 36.98 41.97 36.95C41.95 36.93 41.94 36.9 41.92 36.88C41.9 36.86 41.89 36.84 41.87 36.82C41.86 36.8 41.84 36.78 41.83 36.76C41.81 36.75 41.79 36.73 41.77 36.71C41.76 36.7 41.74 36.68 41.72 36.67L41.68 36.63C41.5 36.47 41.33 36.3 41.19 36.11C41.04 35.92 40.91 35.71 40.81 35.5C40.7 35.28 40.62 35.06 40.56 34.83C40.5 34.59 40.46 34.36 40.44 34.12C40.45 33.98 40.48 33.85 40.51 33.72C40.55 33.59 40.6 33.46 40.66 33.34C40.72 33.22 40.8 33.1 40.88 33C40.97 32.89 41.07 32.8 41.17 32.71C42.32 31.7 43.37 31.66 44.27 32.57C44.28 32.57 44.29 32.58 44.3 32.59C44.3 32.6 44.31 32.6 44.32 32.61C44.33 32.62 44.33 32.63 44.34 32.64C44.35 32.65 44.35 32.66 44.36 32.67L44.37 32.68C44.67 33.04 44.93 33.35 45.18 33.65L45.99 34.61C46.03 34.66 46.07 34.71 46.12 34.76C46.25 34.93 46.52 35.25 46.66 35.26C46.68 35.26 46.71 35.25 46.78 35.2C46.85 35.15 46.9 35.1 46.94 35.03C46.98 34.96 47.01 34.89 47.02 34.81C47.03 34.73 47.03 34.65 47.01 34.58C46.98 34.5 46.95 34.43 46.9 34.37C46.83 34.28 46.77 34.19 46.7 34.09C46.63 34 46.56 33.91 46.49 33.83C46.41 33.74 46.34 33.65 46.26 33.57C46.18 33.49 46.1 33.41 46.02 33.33C45.89 33.21 45.78 33.09 45.67 32.98C45.49 32.83 45.33 32.66 45.19 32.48C45.04 32.3 44.92 32.1 44.81 31.89C44.7 31.69 44.62 31.47 44.55 31.25C44.49 31.02 44.45 30.79 44.42 30.56C44.44 30.4 44.48 30.25 44.52 30.1C44.57 29.95 44.64 29.8 44.71 29.66C44.79 29.52 44.88 29.39 44.99 29.28C45.09 29.16 45.21 29.05 45.33 28.95C47.26 27.27 48.7 28.92 49.46 29.81C49.62 29.99 49.74 30.15 49.86 30.3C49.88 30.33 49.9 30.37 49.93 30.4C49.95 30.43 49.97 30.46 50 30.49C50.02 30.52 50.04 30.55 50.07 30.58C50.09 30.62 50.12 30.65 50.14 30.67C50.82 31.45 51.17 31.59 51.64 31.27C51.7 31.12 51.51 30.27 49.83 28.35L49.7 28.2L49.71 28C49.71 27.82 49.73 27.65 49.77 27.48C49.81 27.3 49.86 27.14 49.93 26.98C50 26.81 50.08 26.66 50.18 26.51C50.28 26.37 50.4 26.23 50.52 26.11C50.71 25.98 50.92 25.87 51.13 25.79C51.35 25.71 51.58 25.65 51.81 25.63C52.04 25.61 52.27 25.62 52.5 25.66C52.73 25.7 52.95 25.77 53.16 25.86C53.35 25.93 53.55 26.01 53.74 26.09C53.93 26.17 54.11 26.26 54.3 26.36C54.48 26.46 54.66 26.56 54.83 26.68C55.01 26.79 55.18 26.91 55.34 27.03C55.67 27.29 56 27.55 56.32 27.83C56.63 28.1 56.94 28.38 57.25 28.67C57.55 28.96 57.85 29.26 58.14 29.56C58.43 29.86 58.71 30.17 58.98 30.49C59 30.65 59 30.82 59 30.99Z" />
			<path id="Layer" class="shp0" d="M58.96 29.63L56.11 26.33L55 25.07L54.24 24.19C54.66 24.38 55.08 24.58 55.48 24.81C55.88 25.03 56.27 25.28 56.65 25.54C57.03 25.81 57.39 26.09 57.74 26.4C58.08 26.7 58.42 27.02 58.73 27.35C58.78 27.61 58.81 27.87 58.83 28.13C58.86 28.39 58.89 28.63 58.91 28.89C58.93 29.14 58.95 29.39 58.96 29.63Z" />
			<path id="Layer" class="shp0" d="M24.47 30.49C24.43 30.43 24.38 30.38 24.34 30.33C24.29 30.27 24.25 30.22 24.21 30.16C24.17 30.1 24.12 30.05 24.08 29.99C24.04 29.93 24 29.88 23.96 29.82C24 29.88 24.04 29.94 24.08 29.99C24.12 30.05 24.16 30.11 24.2 30.16C24.24 30.22 24.28 30.27 24.33 30.33C24.37 30.38 24.42 30.44 24.46 30.49L36.83 44.7L24.47 30.49ZM23.61 29.12C23.63 29.18 23.66 29.24 23.68 29.3C23.71 29.36 23.74 29.42 23.77 29.48C23.8 29.53 23.83 29.59 23.86 29.65C23.9 29.71 23.93 29.76 23.96 29.82C23.93 29.76 23.9 29.7 23.87 29.65C23.83 29.59 23.8 29.53 23.77 29.47C23.74 29.42 23.71 29.36 23.69 29.3C23.66 29.24 23.63 29.18 23.6 29.12L23.61 29.12Z" />
			<path id="Layer" class="shp2" d="" />
		</g>
	</g>
</svg>