<svg xmlns="http://www.w3.org/2000/svg" xmlns:xlink="http://www.w3.org/1999/xlink" width="67" height="67" viewBox="0 0 67 67"><defs><style>.a{fill:#1478a4;}.b{fill:#fff;}.c{filter:url(#a);}</style><filter id="a" x="0" y="0" width="67" height="67" filterUnits="userSpaceOnUse"><feOffset dy="3" input="SourceAlpha"/><feGaussianBlur stdDeviation="3" result="b"/><feFlood flood-opacity="0.502"/><feComposite operator="in" in2="b"/><feComposite in="SourceGraphic"/></filter></defs><g transform="translate(8.674 5.882)"><g transform="translate(0 0)"><g class="c" transform="matrix(1, 0, 0, 1, -8.67, -5.88)"><circle class="a" cx="24.5" cy="24.5" r="24.5" transform="translate(9 6)"/></g></g><path class="b" d="M564.965,32.3l-5.345,5.01a21.116,21.116,0,0,0-6.777-1.116c-12.09,0-19.192,10.464-19.192,10.464a33.028,33.028,0,0,0,8.22,8.207l-4.65,4.647,2.259,2.259,27.745-27.211Zm-9.61,9.23a6.368,6.368,0,0,0-8.409,8.316l-2.756,2.727a29.021,29.021,0,0,1-6.485-5.847c2.385-2.632,7.695-7.338,15.139-7.338a17.72,17.72,0,0,1,4.168.5ZM550.75,53.4l8.131-7.975A6.373,6.373,0,0,1,550.75,53.4Zm21.236-6.742s-6.791,11.9-19.143,11.9a17.417,17.417,0,0,1-6.151-1.177l2.578-2.529a13.626,13.626,0,0,0,3.573.511c7.652,0,12.944-5.633,15.181-8.568a24.451,24.451,0,0,0-5.73-4.715l2.378-2.332A26.539,26.539,0,0,1,571.987,46.654Z" transform="translate(-528.016 -22.514)"/></g></svg>