<svg xmlns="http://www.w3.org/2000/svg" xmlns:xlink="http://www.w3.org/1999/xlink" width="67" height="67" viewBox="0 0 67 67"><defs><style>.a{fill:#0d4e6b;}.b{fill:#fff;}.c{filter:url(#a);}</style><filter id="a" x="0" y="0" width="67" height="67" filterUnits="userSpaceOnUse"><feOffset dy="3" input="SourceAlpha"/><feGaussianBlur stdDeviation="3" result="b"/><feFlood flood-opacity="0.502"/><feComposite operator="in" in2="b"/><feComposite in="SourceGraphic"/></filter></defs><g transform="translate(-1543 -290)"><g transform="translate(1551.674 295.882)"><g class="c" transform="matrix(1, 0, 0, 1, -8.67, -5.88)"><circle class="a" cx="24.5" cy="24.5" r="24.5" transform="translate(9 6)"/></g></g><path class="b" d="M19.6,8.262c7.749,0,13.15,4.912,15.5,7.561-2.285,3-7.687,8.748-15.5,8.748-7.209,0-12.933-5.767-15.458-8.819C6.573,13.067,11.994,8.262,19.6,8.262ZM19.6,5C7.251,5,0,15.684,0,15.684S7.886,27.833,19.6,27.833c12.612,0,19.547-12.149,19.547-12.149S32.144,5,19.6,5Zm-.024,4.893A6.524,6.524,0,1,0,26.1,16.417,6.525,6.525,0,0,0,19.571,9.893Z" transform="translate(1556.857 304.583)"/></g></svg>