<svg height="512pt" viewBox="-50 0 512 512" width="512pt" xmlns="http://www.w3.org/2000/svg"><path d="m39.167969 512c0-91.9375 74.53125-166.472656 166.472656-166.472656 91.9375 0 166.46875 74.535156 166.46875 166.472656zm0 0" fill="#f46262"/><path d="m112.554688 512h31.292968v-154.617188c-11.066406 4.425782-21.546875 10-31.292968 16.582032zm0 0" fill="#bdebff"/><path d="m267.433594 512h31.289062v-138.035156c-9.742187-6.582032-20.226562-12.15625-31.289062-16.582032zm0 0" fill="#bdebff"/><path d="m250.640625 362.519531c0 24.855469-20.148437 45.003907-45 45.003907-24.855469 0-45.003906-20.148438-45.003906-45.003907 0-24.851562 20.148437-45 45.003906-45 24.851563 0 45 20.148438 45 45zm0 0" fill="#ffcfc2"/><path d="m411.277344 204.238281c0 19.558594-15.855469 35.414063-35.414063 35.414063-19.558593 0-35.414062-15.855469-35.414062-35.414063 0-19.558593 15.855469-35.414062 35.414062-35.414062 19.558594 0 35.414063 15.855469 35.414063 35.414062zm0 0" fill="#ffcfc2"/><path d="m70.828125 204.238281c0 19.558594-15.855469 35.414063-35.414063 35.414063-19.558593 0-35.414062-15.855469-35.414062-35.414063 0-19.558593 15.855469-35.414062 35.414062-35.414062 19.558594 0 35.414063 15.855469 35.414063 35.414062zm0 0" fill="#ffaea1"/><path d="m205.640625 317.519531c-24.855469 0-45.003906 20.144531-45.003906 45 0 8.035157 2.117187 15.574219 5.804687 22.101563 12.664063 2.605468 25.773438 3.976562 39.199219 3.976562 13.421875 0 26.53125-1.371094 39.195313-3.976562 3.6875-6.527344 5.804687-14.066406 5.804687-22.101563 0-24.851562-20.148437-45-45-45zm0 0" fill="#ffaea1"/><path d="m384.292969 194.296875c0 98.667969-79.988281 178.652344-178.652344 178.652344-98.667969 0-178.65625-79.984375-178.65625-178.652344s79.988281-178.652344 178.65625-178.652344c98.664063 0 178.652344 79.984375 178.652344 178.652344zm0 0" fill="#ffe2d9"/><path d="m68.707031 194.296875c0-91.609375 68.957031-167.097656 157.792969-177.433594-6.84375-.796875-13.804688-1.21875-20.859375-1.21875-98.667969 0-178.65625 79.988281-178.65625 178.652344 0 98.667969 79.988281 178.652344 178.65625 178.652344 7.054687 0 14.015625-.421875 20.859375-1.21875-88.835938-10.332031-157.792969-85.824219-157.792969-177.433594zm0 0" fill="#ffcfc2"/><path d="m205.761719 15.644531c-97.84375-.0625-177.046875 77.664063-178.746094 175.488281-.292969 16.792969 1.742187 33.0625 5.789063 48.523438 21 0 38.023437-17.023438 38.023437-38.027344v-56.050781c0-14.707031 11.921875-26.628906 26.628906-26.628906 12.222657 0 22.855469 8.328125 25.828125 20.183593 9.007813 35.945313 41.53125 62.5625 80.269532 62.5625 38.355468 0 70.617187-26.09375 79.992187-61.5 3.296875-12.441406 14.335937-21.246093 27.203125-21.246093h1.664062c15.484376 0 28.035157 12.554687 28.035157 28.039062v54.640625c0 21 17.027343 38.023438 38.027343 38.023438 3.789063-14.484375 5.816407-29.683594 5.816407-45.355469 0-98.625-79.921875-178.585937-178.53125-178.652344zm0 0" fill="#935b45"/><path d="m88.847656 120.382812c25.089844-55.140624 77.386719-95.28125 139.742188-103.273437-7.476563-.960937-15.09375-1.457031-22.828125-1.464844-97.84375-.0625-177.046875 77.664063-178.746094 175.488281-.292969 16.792969 1.742187 33.0625 5.789063 48.523438 21 0 38.023437-17.023438 38.023437-38.027344v-56.050781c0-11.691406 7.539063-21.617187 18.019531-25.195313zm0 0" fill="#774839"/><path d="m205.640625 113.039062-152.726563 64.59375h-40.863281c8.480469-99.367187 92.066407-177.632812 193.589844-177.632812 101.519531 0 185.109375 78.265625 193.589844 177.632812h-40.390625zm0 0" fill="#92d8ff"/><path d="m231.714844 1.757812c-8.53125-1.152343-17.234375-1.757812-26.074219-1.757812-101.523437 0-185.109375 78.265625-193.589844 177.632812h40.863281l11.78125-4.984374c9.84375-88.394532 79.230469-159.0625 167.019532-170.890626zm0 0" fill="#66d3d0"/><path d="m351.710938 142.425781c-.300782-1.105469-.996094-2.046875-1.964844-2.65625-10.964844-6.886719-80.554688-48.980469-144.105469-48.980469-63.554687 0-133.144531 42.09375-144.109375 48.980469-.96875.609375-1.664062 1.550781-1.964844 2.65625-2.953125 10.863281-17.886718 69.917969 7.039063 68.503907 27.449219-1.5625 80.554687-60.070313 139.035156-60.070313 58.476563 0 111.582031 58.507813 139.03125 60.070313 24.925781 1.414062 9.992187-57.640626 7.039063-68.503907zm0 0" fill="#bdebff"/><path d="m312.550781 512h-213.824219v-64.148438c0-7.917968 6.421876-14.339843 14.34375-14.339843h185.136719c7.921875 0 14.34375 6.421875 14.34375 14.339843zm0 0" fill="#92d8ff"/><g fill="#222223"><path d="m205.640625 257.195312c-9.78125 0-18.890625-5.269531-23.769531-13.757812-2.0625-3.589844-.824219-8.175781 2.765625-10.238281 3.589843-2.066407 8.175781-.828125 10.242187 2.761719 2.210938 3.847656 6.332032 6.234374 10.761719 6.234374 4.425781 0 8.550781-2.386718 10.761719-6.234374 2.0625-3.589844 6.648437-4.828126 10.238281-2.761719 3.589844 2.0625 4.828125 6.648437 2.765625 10.238281-4.878906 8.488281-13.984375 13.757812-23.765625 13.757812zm0 0"/><path d="m271.25 227.035156c-4.140625 0-7.5-3.355468-7.5-7.5v-11.695312c0-4.144532 3.359375-7.5 7.5-7.5 4.144531 0 7.5 3.355468 7.5 7.5v11.695312c0 4.144532-3.355469 7.5-7.5 7.5zm0 0"/><path d="m140.027344 227.035156c-4.140625 0-7.5-3.355468-7.5-7.5v-11.695312c0-4.144532 3.359375-7.5 7.5-7.5s7.5 3.355468 7.5 7.5v11.695312c0 4.144532-3.359375 7.5-7.5 7.5zm0 0"/></g><path d="m277.097656 249.148438h-11.695312c-4.144532 0-7.5-3.355469-7.5-7.5 0-4.140626 3.355468-7.5 7.5-7.5h11.695312c4.144532 0 7.5 3.359374 7.5 7.5 0 4.144531-3.355468 7.5-7.5 7.5zm0 0" fill="#f46262"/><path d="m145.875 249.148438h-11.695312c-4.144532 0-7.5-3.355469-7.5-7.5 0-4.140626 3.355468-7.5 7.5-7.5h11.695312c4.144531 0 7.5 3.359374 7.5 7.5 0 4.144531-3.355469 7.5-7.5 7.5zm0 0" fill="#f46262"/></svg>