<svg xmlns="http://www.w3.org/2000/svg" width="34.782" height="26.739" viewBox="0 0 34.782 26.739"><defs><style>.a{fill:#0b0b0b;}</style></defs><path class="a" d="M562.063,32.3l-4.849,4.546a19.161,19.161,0,0,0-6.149-1.013c-10.97,0-17.413,9.494-17.413,9.494a29.973,29.973,0,0,0,7.458,7.446l-4.219,4.216,2.049,2.05,25.174-24.689Zm-8.719,8.375a5.778,5.778,0,0,0-7.63,7.545l-2.5,2.474a26.326,26.326,0,0,1-5.884-5.305c2.163-2.388,6.981-6.658,13.736-6.658a16.084,16.084,0,0,1,3.782.457ZM549.166,51.44l7.377-7.236A5.783,5.783,0,0,1,549.166,51.44Zm19.268-6.117s-6.162,10.8-17.369,10.8a15.8,15.8,0,0,1-5.581-1.068l2.339-2.295a12.366,12.366,0,0,0,3.242.464c6.943,0,11.745-5.111,13.774-7.774a22.2,22.2,0,0,0-5.2-4.278l2.158-2.116A24.083,24.083,0,0,1,568.434,45.323Z" transform="translate(-533.652 -32.296)"/></svg>