<svg xmlns="http://www.w3.org/2000/svg" width="20.823" height="17.129" viewBox="0 0 20.823 17.129">
  <g id="icon_off" data-name="icon off" transform="translate(-5266 -2092.018)">
    <path id="Path_1485" data-name="Path 1485" d="M12.046,29.607a1.1,1.1,0,0,1-.629,1,1.083,1.083,0,0,1-1.163-.149l-5.978-5H1.093A1.1,1.1,0,0,1,0,24.348v-4.4a1.1,1.1,0,0,1,1.093-1.105H4.277l5.978-5a1.082,1.082,0,0,1,1.163-.149,1.105,1.105,0,0,1,.629,1V29.607Z" transform="translate(5266 2078.435)" fill="#fff"/>
    <path id="XMLID_502_" d="M245.918,120.456a1.132,1.132,0,0,0-1.6,0l-1.067,1.067-1.067-1.067a1.132,1.132,0,0,0-1.6,1.6l1.067,1.067-1.067,1.067a1.132,1.132,0,0,0,1.6,1.6l1.067-1.067,1.067,1.067a1.132,1.132,0,0,0,1.6-1.6l-1.067-1.067,1.067-1.067A1.132,1.132,0,0,0,245.918,120.456Z" transform="translate(5040.573 1976.893)" fill="#fff"/>
  </g>
</svg>
