<svg xmlns="http://www.w3.org/2000/svg" width="15.741" height="18" viewBox="0 0 15.741 18">
  <g id="icon-transition" transform="translate(0)">
    <path id="Path_1564" data-name="Path 1564" d="M8.286,7.144v.9a1.371,1.371,0,0,0,.171.715.811.811,0,0,0,.7.407A1.21,1.21,0,0,0,10,8.758l2.99-2.984a1.68,1.68,0,0,0,0-2.377L10,.412A1.209,1.209,0,0,0,9.161,0c-.436,0-.875.347-.875,1.123v.821A8.874,8.874,0,0,0,0,9.7a.528.528,0,0,0,.949.375A7.451,7.451,0,0,1,8.286,7.144Zm0,0" transform="translate(-0.001)"/>
    <path id="Path_1565" data-name="Path 1565" d="M77.4,218.8a.528.528,0,0,0-.62.179,7.451,7.451,0,0,1-7.332,2.933v-.9c0-.775-.44-1.123-.875-1.123a1.21,1.21,0,0,0-.843.412l-2.99,2.984a1.681,1.681,0,0,0,0,2.377l2.99,2.984a1.21,1.21,0,0,0,.843.412c.435,0,.875-.347.875-1.123v-.821a8.874,8.874,0,0,0,8.281-7.759A.526.526,0,0,0,77.4,218.8Zm0,0" transform="translate(-61.997 -211.058)"/>
  </g>
</svg>
