<svg xmlns="http://www.w3.org/2000/svg" width="32" height="32" viewBox="0 0 32 32">
  <g id="icon-help" transform="translate(-811 -632)" fill="#fff">
    <path id="Path_285" data-name="Path 285" d="M188.336,139.985c-2.955,0-4.312,1.733-4.312,2.9a1.25,1.25,0,0,0,1.313,1.235c1.182,0,.7-1.668,2.933-1.668,1.095,0,1.97.477,1.97,1.473,0,1.17-1.226,1.842-1.948,2.448a3.951,3.951,0,0,0-1.467,3.293c0,1.127.306,1.452,1.2,1.452,1.073,0,1.292-.477,1.292-.888a2.71,2.71,0,0,1,1.226-2.708c.591-.455,2.452-1.928,2.452-3.965S191.138,139.985,188.336,139.985Z" transform="translate(638.444 499.993)"/>
    <path id="Path_286" data-name="Path 286" d="M223.311,343.232a1.664,1.664,0,0,0,0,3.328,1.664,1.664,0,0,0,0-3.328Z" transform="translate(603.182 309.374)" />
    <path id="Subtraction_1" data-name="Subtraction 1" d="M16,32A16,16,0,0,1,4.686,4.686,16,16,0,0,1,32,16a16.24,16.24,0,0,1-2.7,8.9A15.863,15.863,0,0,1,16,32ZM16,2.5A13.5,13.5,0,0,0,6.454,25.545,13.5,13.5,0,1,0,25.545,6.453,13.412,13.412,0,0,0,16,2.5Z" transform="translate(811 632)" />
  </g>
</svg>
