<svg id="icon-song" xmlns="http://www.w3.org/2000/svg" width="12.469" height="18" viewBox="0 0 12.469 18">
  <path id="icon-song-2" data-name="icon-song" d="M75.371,11.447a7.476,7.476,0,0,0,1-3.292,4.6,4.6,0,0,0-.485-2.283A6.454,6.454,0,0,0,73.4,3.419a7.043,7.043,0,0,1-1.842-1.555l-.084-.114A3.065,3.065,0,0,1,70.829.6a.7.7,0,0,0-.734-.6.691.691,0,0,0-.644.69V13.029a4.006,4.006,0,0,0-2.077-.568c-1.908,0-3.462,1.242-3.462,2.769S65.466,18,67.374,18s3.462-1.242,3.462-2.769V7.16a4.984,4.984,0,0,1,3.21,3.773,3.9,3.9,0,0,1-.267.378.692.692,0,1,0,1.039.914,5.148,5.148,0,0,0,.508-.715A.436.436,0,0,0,75.371,11.447Z" transform="translate(-63.912 0)"/>
</svg>
