<svg id="icon-book" xmlns="http://www.w3.org/2000/svg" width="18" height="16.602" viewBox="0 0 18 16.602">
  <path id="Path_1559" data-name="Path 1559" d="M17.721,22.246a1.427,1.427,0,0,0-.638-.465,1.741,1.741,0,0,1-.054.616L13.786,33.066a.777.777,0,0,1-.378.449,1.2,1.2,0,0,1-.605.168H2.826q-1.3,0-1.556-.757a.493.493,0,0,1,.011-.465.476.476,0,0,1,.411-.162h9.393a1.992,1.992,0,0,0,1.389-.373,4.221,4.221,0,0,0,.773-1.659l2.962-9.793a1.542,1.542,0,0,0-.195-1.405,1.424,1.424,0,0,0-1.232-.605H6.555a3.005,3.005,0,0,0-.551.1l.011-.033a2.256,2.256,0,0,0-.513-.059.722.722,0,0,0-.389.125,1.251,1.251,0,0,0-.286.254,1.861,1.861,0,0,0-.211.346q-.1.211-.173.389t-.162.379a2.436,2.436,0,0,1-.178.33q-.065.086-.184.227t-.194.249a.609.609,0,0,0-.1.195.7.7,0,0,0,.022.286.891.891,0,0,1,.032.275,4.1,4.1,0,0,1-.3,1.043,4.456,4.456,0,0,1-.459.913q-.043.054-.238.243a.865.865,0,0,0-.238.33q-.043.054-.005.3a1.561,1.561,0,0,1,.027.346,4.428,4.428,0,0,1-.27.973,6.613,6.613,0,0,1-.454.994,1.772,1.772,0,0,1-.184.249.909.909,0,0,0-.184.3.953.953,0,0,0,.005.3.845.845,0,0,1-.005.324,5.867,5.867,0,0,1-.324.989,7.216,7.216,0,0,1-.487.989,2.6,2.6,0,0,1-.178.254,2.638,2.638,0,0,0-.178.254.673.673,0,0,0-.086.227.537.537,0,0,0,.033.211A.6.6,0,0,1,.189,31q-.011.151-.043.4t-.033.291a1.961,1.961,0,0,0,.022,1.373A3.037,3.037,0,0,0,1.21,34.487a2.645,2.645,0,0,0,1.605.578h9.977a2.157,2.157,0,0,0,1.324-.47,2.231,2.231,0,0,0,.827-1.162l2.972-9.793A1.529,1.529,0,0,0,17.721,22.246Zm-11.5.022.227-.692a.482.482,0,0,1,.178-.243.453.453,0,0,1,.276-.1h6.572a.236.236,0,0,1,.216.1.282.282,0,0,1,.022.243l-.227.692a.483.483,0,0,1-.178.243.453.453,0,0,1-.276.1H6.458a.236.236,0,0,1-.216-.1A.282.282,0,0,1,6.22,22.268Zm-.9,2.767.227-.692a.483.483,0,0,1,.178-.243A.452.452,0,0,1,6,24h6.572a.235.235,0,0,1,.216.1.282.282,0,0,1,.022.243l-.227.692a.482.482,0,0,1-.178.243.452.452,0,0,1-.276.1H5.561a.235.235,0,0,1-.216-.1A.281.281,0,0,1,5.323,25.035Z" transform="translate(0 -18.463)"/>
</svg>
