<svg xmlns="http://www.w3.org/2000/svg" width="64" height="64" viewBox="0 0 64 64">
  <g id="icon-setting" transform="translate(-6.71)">
    <g id="Group_54" data-name="Group 54" transform="translate(6.71)">
      <path id="Path_172" data-name="Path 172" d="M69.6,39.013l-6.041-4.6A22.563,22.563,0,0,0,63.7,32a21.882,21.882,0,0,0-.142-2.416l6.046-4.6a2.834,2.834,0,0,0,.715-3.675L64.041,10.72a2.948,2.948,0,0,0-3.634-1.272l-7.128,2.787A24.607,24.607,0,0,0,49,9.816L47.914,2.453A2.884,2.884,0,0,0,45.011,0h-12.6a2.877,2.877,0,0,0-2.9,2.432L28.43,9.821a25.367,25.367,0,0,0-4.272,2.419L17.011,9.445A3.009,3.009,0,0,0,13.4,10.7l-6.29,10.6a2.817,2.817,0,0,0,.712,3.693l6.041,4.6a20.55,20.55,0,0,0,0,4.829l-6.046,4.6a2.835,2.835,0,0,0-.712,3.675L13.39,53.277a2.942,2.942,0,0,0,3.634,1.272l7.128-2.787a24.824,24.824,0,0,0,4.277,2.419l1.084,7.36A2.882,2.882,0,0,0,32.417,64h12.6a2.88,2.88,0,0,0,2.9-2.432L49,54.181a25.484,25.484,0,0,0,4.272-2.421l7.147,2.795a3.013,3.013,0,0,0,1.074.2,2.9,2.9,0,0,0,2.533-1.445l6.309-10.64A2.828,2.828,0,0,0,69.6,39.013Zm-30.89,3.653A10.67,10.67,0,1,1,49.666,32,10.824,10.824,0,0,1,38.713,42.667Z" transform="translate(-6.71)"/>
    </g>
  </g>
</svg>
