<svg id="icon-abc" xmlns="http://www.w3.org/2000/svg" width="17.997" height="17.031" viewBox="0 0 17.997 17.031">
  <path id="Path_1560" data-name="Path 1560" d="M216.58,228.994h-1.308v.965h1.308a.483.483,0,0,0,0-.965Z" transform="translate(-202.283 -215.659)"/>
  <path id="Path_1561" data-name="Path 1561" d="M216.536,199.483a.475.475,0,0,0-.459-.478h-.807v.845h1.092A.465.465,0,0,0,216.536,199.483Z" transform="translate(-202.281 -187.48)"/>
  <path id="Path_1562" data-name="Path 1562" d="M15.949,16.813H12.872a2.067,2.067,0,0,0,2.048-2.084V10.057A2.04,2.04,0,0,0,12.872,8H8.2a2.074,2.074,0,0,0-2.088,2.053v4.673a2.064,2.064,0,0,0,.357,1.146l-.083-.088a2.069,2.069,0,0,0-2.921,0L.605,18.646a2.071,2.071,0,0,0,0,2.925l2.86,2.86a2.073,2.073,0,0,0,2.925,0l2.85-2.86a1.91,1.91,0,0,0,.551-1.042v2.406a2.1,2.1,0,0,0,2.088,2.084h4.069A2.067,2.067,0,0,0,18,22.935V18.866A2.04,2.04,0,0,0,15.949,16.813ZM10.795,9.724a2.625,2.625,0,0,1,1.854.76.483.483,0,0,1-.678.687,1.675,1.675,0,1,0,.1,2.282.483.483,0,0,1,.733.628,2.64,2.64,0,1,1-2-4.358ZM8.011,20.276a.483.483,0,0,1-.614.3l-.712-.245L5.158,21.858l.239.726a.483.483,0,1,1-.917.3L3.174,18.919a.483.483,0,0,1,.616-.607l3.922,1.351A.483.483,0,0,1,8.011,20.276Zm1.78-1.41v.823a1.911,1.911,0,0,0-.552-1.042L7.049,16.458a2.079,2.079,0,0,0,1.151.355H11.88A2.074,2.074,0,0,0,9.792,18.866Zm4.506,4.4H12.527a.514.514,0,0,1-.5-.5V19.03a.487.487,0,0,1,.5-.467H13.8A1.429,1.429,0,0,1,15.221,20a1.406,1.406,0,0,1-.136.6,1.465,1.465,0,0,1,.637,1.212A1.443,1.443,0,0,1,14.3,23.269Z" transform="translate(-0.001 -8.004)"/>
  <path id="Path_1563" data-name="Path 1563" d="M73.256,200.5l.851-.851-1.275-.439Z" transform="translate(-68.438 -187.675)"/>
</svg>
