<svg xmlns="http://www.w3.org/2000/svg" width="24" height="19.066" viewBox="0 0 24 19.066">
  <path id="Path_1477" data-name="Path 1477" d="M12.007,26.579a1.09,1.09,0,0,1-1.786.839L4.263,22.48H1.09A1.089,1.089,0,0,1,0,21.391V17.048a1.09,1.09,0,0,1,1.09-1.09H4.264l5.958-4.937a1.09,1.09,0,0,1,1.786.839V26.579Zm4.188-1.7-.078,0a1.089,1.089,0,0,1-.771-.319l-.146-.146a1.089,1.089,0,0,1-.105-1.42,6.337,6.337,0,0,0-.168-7.766A1.089,1.089,0,0,1,15,13.77l.145-.146a1.066,1.066,0,0,1,.825-.318,1.091,1.091,0,0,1,.79.4,8.728,8.728,0,0,1,.227,10.736A1.091,1.091,0,0,1,16.2,24.876ZM20.7,28.244a1.091,1.091,0,0,1-.787.386h-.046a1.089,1.089,0,0,1-.771-.319l-.143-.143a1.09,1.09,0,0,1-.063-1.472A11.615,11.615,0,0,0,18.7,11.521a1.09,1.09,0,0,1,.044-1.492l.143-.143a1.061,1.061,0,0,1,.8-.32,1.09,1.09,0,0,1,.783.366A13.994,13.994,0,0,1,20.7,28.244Z" transform="translate(0 -9.565)" fill="#fff"/>
</svg>
