<svg xmlns="http://www.w3.org/2000/svg" width="24.001" height="22.092" viewBox="0 0 24.001 22.092">
  <path id="Union_1" data-name="Union 1" d="M-3226.94-5009.215a1.5,1.5,0,0,1,0-2.121l2.153-2.153h-.581a2.627,2.627,0,0,1-2.633-2.606v-8.787a2.628,2.628,0,0,1,2.633-2.607h10.977a2.633,2.633,0,0,1,2.29,1.314l4.253-4.253a1.5,1.5,0,0,1,2.121,0,1.5,1.5,0,0,1,0,2.121l-6.031,6.031v6.181a2.628,2.628,0,0,1-2.633,2.606h-6.154l-4.274,4.274a1.5,1.5,0,0,1-1.061.439A1.5,1.5,0,0,1-3226.94-5009.215Zm20.59-5.919-4.1-2.345v-6.045l4.076-2.346a1.318,1.318,0,0,1,.444-.182,1.572,1.572,0,0,1,1.933,1.511v8.052a1.582,1.582,0,0,1-.209.782,1.569,1.569,0,0,1-1.355.789A1.553,1.553,0,0,1-3206.35-5015.134Z" transform="translate(3228 5030.867)" fill="#fff"/>
</svg>
