<svg xmlns="http://www.w3.org/2000/svg" width="31.995" height="31.995" viewBox="0 0 31.995 31.995">
  <g id="icon-global-outline" transform="translate(-209 -163)">
    <g id="global" transform="translate(209 163)">
      <path id="Path_4" data-name="Path 4" d="M27.31,4.686A16,16,0,0,0,4.686,27.31,16,16,0,0,0,27.31,4.686Zm-10.375,5.33a29.228,29.228,0,0,0,4.887-.552,26.466,26.466,0,0,1,.753,5.6h-5.64Zm0-1.876V2.032c1.3.432,2.552,1.74,3.549,3.735a16.514,16.514,0,0,1,.8,1.9,27.456,27.456,0,0,1-4.347.477ZM15.06,2.032V8.14a27.471,27.471,0,0,1-4.347-.477,16.509,16.509,0,0,1,.8-1.9c1-1.995,2.254-3.3,3.549-3.735Zm0,7.983V15.06H9.42a26.47,26.47,0,0,1,.753-5.6,29.228,29.228,0,0,0,4.887.552ZM7.545,15.06H1.906A13.99,13.99,0,0,1,4.652,7.583a19.171,19.171,0,0,0,3.7,1.443,28.427,28.427,0,0,0-.808,6.035Zm0,1.875a28.426,28.426,0,0,0,.808,6.035,19.171,19.171,0,0,0-3.7,1.443,13.99,13.99,0,0,1-2.746-7.478Zm1.875,0h5.64V21.98a29.228,29.228,0,0,0-4.887.552A26.466,26.466,0,0,1,9.42,16.935Zm5.64,6.92v6.108c-1.3-.432-2.552-1.74-3.549-3.735a16.513,16.513,0,0,1-.8-1.9A27.456,27.456,0,0,1,15.06,23.855Zm1.875,6.108V23.855a27.472,27.472,0,0,1,4.347.477,16.508,16.508,0,0,1-.8,1.9C19.487,28.222,18.23,29.531,16.935,29.963Zm0-7.983V16.935h5.64a26.471,26.471,0,0,1-.753,5.6,29.227,29.227,0,0,0-4.887-.552Zm7.516-5.045h5.638a13.99,13.99,0,0,1-2.746,7.478,19.171,19.171,0,0,0-3.7-1.443A28.427,28.427,0,0,0,24.451,16.935Zm0-1.875a28.426,28.426,0,0,0-.808-6.035,19.172,19.172,0,0,0,3.7-1.443,13.989,13.989,0,0,1,2.746,7.478Zm1.637-8.942A17.76,17.76,0,0,1,23.114,7.23a18.507,18.507,0,0,0-.954-2.3A13.064,13.064,0,0,0,20.768,2.7a14.075,14.075,0,0,1,5.217,3.315ZM11.228,2.7A13.064,13.064,0,0,0,9.835,4.929a18.5,18.5,0,0,0-.954,2.3A17.763,17.763,0,0,1,5.907,6.118l.1-.107A14.075,14.075,0,0,1,11.228,2.7ZM5.907,25.877a17.76,17.76,0,0,1,2.974-1.112,18.5,18.5,0,0,0,.954,2.3A13.064,13.064,0,0,0,11.228,29.3a14.075,14.075,0,0,1-5.217-3.315ZM20.768,29.3a13.062,13.062,0,0,0,1.393-2.232,18.5,18.5,0,0,0,.954-2.3,17.765,17.765,0,0,1,2.974,1.112l-.1.107A14.075,14.075,0,0,1,20.768,29.3Z" transform="translate(0 0)" fill="#fff"/>
    </g>
  </g>
</svg>
